<svg width="22" height="22" viewBox="0 0 22 22" fill="none" xmlns="http://www.w3.org/2000/svg">
<path fill-rule="evenodd" clip-rule="evenodd" d="M1 9H21C21.5523 9 22 8.55228 22 8V5C22 3.34315 20.6569 2 19 2H3C1.34315 2 0 3.34315 0 5V8C0 8.55228 0.447715 9 1 9ZM20 7H2V5C2 4.44772 2.44772 4 3 4H19C19.5523 4 20 4.44772 20 5V7Z" fill="#1E5B63"/>
<path fill-rule="evenodd" clip-rule="evenodd" d="M3 22H19C20.6569 22 22 20.6569 22 19V8C22 7.44772 21.5523 7 21 7H1C0.447715 7 0 7.44772 0 8V19C0 20.6569 1.34315 22 3 22ZM2 19V9H20V19C20 19.5523 19.5523 20 19 20H3C2.44772 20 2 19.5523 2 19Z" fill="#1E5B63"/>
<path d="M6 6C5.44772 6 5 5.55228 5 5V1C5 0.447715 5.44772 0 6 0C6.55228 0 7 0.447715 7 1V5C7 5.55228 6.55228 6 6 6Z" fill="#1E5B63"/>
<path d="M16 6C15.4477 6 15 5.55228 15 5V1C15 0.447715 15.4477 0 16 0C16.5523 0 17 0.447715 17 1V5C17 5.55228 16.5523 6 16 6Z" fill="#1E5B63"/>
<path d="M6 13C6.55228 13 7 12.5523 7 12C7 11.4477 6.55228 11 6 11C5.44772 11 5 11.4477 5 12C5 12.5523 5.44772 13 6 13Z" fill="#1E5B63"/>
<path d="M11 13C11.5523 13 12 12.5523 12 12C12 11.4477 11.5523 11 11 11C10.4477 11 10 11.4477 10 12C10 12.5523 10.4477 13 11 13Z" fill="#1E5B63"/>
<path d="M16 13C16.5523 13 17 12.5523 17 12C17 11.4477 16.5523 11 16 11C15.4477 11 15 11.4477 15 12C15 12.5523 15.4477 13 16 13Z" fill="#1E5B63"/>
<path d="M6 18C6.55228 18 7 17.5523 7 17C7 16.4477 6.55228 16 6 16C5.44772 16 5 16.4477 5 17C5 17.5523 5.44772 18 6 18Z" fill="#1E5B63"/>
<path d="M11 18C11.5523 18 12 17.5523 12 17C12 16.4477 11.5523 16 11 16C10.4477 16 10 16.4477 10 17C10 17.5523 10.4477 18 11 18Z" fill="#1E5B63"/>
<path d="M16 18C16.5523 18 17 17.5523 17 17C17 16.4477 16.5523 16 16 16C15.4477 16 15 16.4477 15 17C15 17.5523 15.4477 18 16 18Z" fill="#1E5B63"/>
</svg>
