<svg width="16" height="14" viewBox="0 0 16 14" fill="none" xmlns="http://www.w3.org/2000/svg">
<path d="M15.3333 13.6666H0.666667C0.298477 13.6666 0 13.3682 0 13V0.99998C0 0.63179 0.298477 0.333313 0.666667 0.333313C1.03486 0.333313 1.33333 0.63179 1.33333 0.99998V12.3333H15.3333C15.7015 12.3333 16 12.6318 16 13C16 13.3682 15.7015 13.6666 15.3333 13.6666Z" fill="#1E5B63"/>
<path fillRule="evenodd" clipRule="evenodd" d="M2 13C2 13.3681 2.29848 13.6666 2.66667 13.6666H5.33333C5.70152 13.6666 6 13.3681 6 13V9.66663C6 8.56206 5.10457 7.66663 4 7.66663C2.89543 7.66663 2 8.56206 2 9.66663V13ZM4.66667 9.66663V12.3333H3.33333V9.66663C3.33333 9.29844 3.63181 8.99996 4 8.99996C4.36819 8.99996 4.66667 9.29844 4.66667 9.66663Z" fill="#1E5B63"/>
<path fillRule="evenodd" clipRule="evenodd" d="M6.66669 13C6.66669 13.3682 6.96516 13.6667 7.33335 13.6667H10C10.3682 13.6667 10.6667 13.3682 10.6667 13V7C10.6667 5.89543 9.77126 5 8.66669 5C7.56212 5 6.66669 5.89543 6.66669 7V13ZM9.33335 7V12.3333H8.00002V7C8.00002 6.63181 8.2985 6.33333 8.66669 6.33333C9.03488 6.33333 9.33335 6.63181 9.33335 7Z" fill="#1E5B63"/>
<path fillRule="evenodd" clipRule="evenodd" d="M11.3333 13C11.3333 13.3681 11.6318 13.6666 12 13.6666H14.6666C15.0348 13.6666 15.3333 13.3681 15.3333 13V3.66663C15.3333 2.56206 14.4379 1.66663 13.3333 1.66663C12.2287 1.66663 11.3333 2.56206 11.3333 3.66663V13ZM14 3.66663V12.3333H12.6666V3.66663C12.6666 3.29844 12.9651 2.99996 13.3333 2.99996C13.7015 2.99996 14 3.29844 14 3.66663Z" fill="#1E5B63"/>
</svg>
