<svg width="21" height="20" viewBox="0 0 21 20" fill="none" xmlns="http://www.w3.org/2000/svg">
<path d="M10.5 20C9.11667 20 7.81667 19.7373 6.6 19.212C5.38333 18.6873 4.325 17.975 3.425 17.075C2.525 16.175 1.81267 15.1167 1.288 13.9C0.762667 12.6833 0.5 11.3833 0.5 10C0.5 8.61667 0.762667 7.31667 1.288 6.1C1.81267 4.88333 2.525 3.825 3.425 2.925C4.325 2.025 5.38333 1.31233 6.6 0.787C7.81667 0.262333 9.11667 0 10.5 0C11.8833 0 13.1833 0.262333 14.4 0.787C15.6167 1.31233 16.675 2.025 17.575 2.925C18.475 3.825 19.1873 4.88333 19.712 6.1C20.2373 7.31667 20.5 8.61667 20.5 10C20.5 11.3833 20.2373 12.6833 19.712 13.9C19.1873 15.1167 18.475 16.175 17.575 17.075C16.675 17.975 15.6167 18.6873 14.4 19.212C13.1833 19.7373 11.8833 20 10.5 20ZM10.5 18C12.7333 18 14.625 17.225 16.175 15.675C17.725 14.125 18.5 12.2333 18.5 10C18.5 9.1 18.354 8.23333 18.062 7.4C17.7707 6.56667 17.35 5.8 16.8 5.1L5.6 16.3C6.3 16.85 7.06667 17.2707 7.9 17.562C8.73333 17.854 9.6 18 10.5 18ZM4.2 14.9L15.4 3.7C14.7 3.15 13.9333 2.72933 13.1 2.438C12.2667 2.146 11.4 2 10.5 2C8.26667 2 6.375 2.775 4.825 4.325C3.275 5.875 2.5 7.76667 2.5 10C2.5 10.9 2.646 11.7667 2.938 12.6C3.22933 13.4333 3.65 14.2 4.2 14.9Z" fill="#FF5252"/>
</svg>
