<svg width="15" height="16" viewBox="0 0 15 16" fill="none" xmlns="http://www.w3.org/2000/svg">
<path d="M12.6048 4.75499L9.7944 4.75499C9.39378 4.75499 9.06902 5.07975 9.06902 5.48036C9.06903 5.88098 9.39378 6.20573 9.7944 6.20573L13.4212 6.20573C14.2225 6.20573 14.872 5.55622 14.872 4.75499L14.872 1.12814C14.872 0.727528 14.5472 0.402768 14.1466 0.402769C13.746 0.402769 13.4212 0.727528 13.4212 1.12814L13.4212 3.44742C12.4345 2.28483 11.1105 1.43251 9.58955 1.02498C5.52646 -0.0637233 1.35011 2.34749 0.261414 6.41058C-0.827287 10.4737 1.58393 14.65 5.64702 15.7387C9.71011 16.8274 13.8865 14.4162 14.9752 10.3531C15.0788 9.96615 14.8492 9.56841 14.4622 9.46472C14.0753 9.36103 13.6775 9.59067 13.5738 9.97763C12.6925 13.2668 9.31166 15.2187 6.0225 14.3374C2.73333 13.4561 0.781394 10.0752 1.66272 6.78606C2.54405 3.49689 5.92491 1.54496 9.21407 2.42629C10.6016 2.79807 11.7849 3.62529 12.6048 4.75499Z" fill="white"/>
</svg>
