<svg width="13" height="17" viewBox="0 0 13 17" fill="none" xmlns="http://www.w3.org/2000/svg">
<path fill-rule="evenodd" clip-rule="evenodd" d="M3.34688 16.3228C3.44516 16.3758 3.5552 16.4033 3.66688 16.4028C3.86176 16.4028 4.04688 16.3175 4.17355 16.1694L12.1735 6.8361C12.3435 6.63835 12.3826 6.35964 12.2735 6.12277C12.1642 5.88647 11.9273 5.73546 11.6669 5.7361L7.53355 5.73611L10.2535 1.41611C10.3726 1.20984 10.3726 0.955706 10.2535 0.749438C10.1363 0.535118 9.91118 0.402105 9.66688 0.402772L4.33355 0.402773C4.06441 0.404116 3.82248 0.567156 3.72021 0.816106L0.386881 8.81611C0.303167 9.01999 0.325627 9.25206 0.446882 9.43611C0.569537 9.62236 0.777202 9.73495 1.00022 9.73611L4.77355 9.73611L3.00022 15.5428C2.91236 15.8524 3.05821 16.1805 3.34688 16.3228ZM5.66688 8.40277L2.00021 8.40277L4.78021 1.7361L8.46688 1.7361L5.76688 6.04944C5.63831 6.25515 5.63163 6.51447 5.74944 6.72653C5.86725 6.9386 6.09096 7.06992 6.33355 7.06944L10.2202 7.06944L5.21355 12.9094L6.30688 9.26277C6.36789 9.05929 6.32827 8.83893 6.20021 8.66944C6.07431 8.50157 5.87672 8.40277 5.66688 8.40277Z" fill="white"/>
</svg>
