<svg width="16" height="16" viewBox="0 0 16 16" fill="none" xmlns="http://www.w3.org/2000/svg">
<path fillRule="evenodd" clipRule="evenodd" d="M0.666687 8.00002C0.666687 12.0501 3.94993 15.3334 8.00002 15.3334C9.94494 15.3334 11.8102 14.5607 13.1855 13.1855C14.5607 11.8102 15.3334 9.94494 15.3334 8.00002C15.3334 3.94993 12.0501 0.666687 8.00002 0.666687C3.94993 0.666687 0.666687 3.94993 0.666687 8.00002ZM2.00002 8.00002C2.00002 4.68631 4.68631 2.00002 8.00002 2.00002C11.3137 2.00002 14 4.68631 14 8.00002C14 11.3137 11.3137 14 8.00002 14C4.68631 14 2.00002 11.3137 2.00002 8.00002Z" fill="#1E5B63"/>
<path fillRule="evenodd" clipRule="evenodd" d="M5.68004 11.9133C5.77659 11.9714 5.8874 12.0014 6.00004 12C6.12486 12.0004 6.24728 11.9657 6.35338 11.9L11.6867 8.56666C11.8829 8.4451 12.0022 8.23075 12.0022 7.99999C12.0022 7.76924 11.8829 7.55489 11.6867 7.43333L6.35338 4.09999C6.14766 3.97142 5.88834 3.96474 5.67628 4.08255C5.46422 4.20036 5.33289 4.42407 5.33338 4.66666V11.3333C5.33514 11.5752 5.46781 11.7972 5.68004 11.9133ZM10.0734 7.99999L6.66671 10.1333V5.86666L10.0734 7.99999Z" fill="#1E5B63"/>
</svg>
