<svg width="70" height="70" viewBox="0 0 70 70" fill="none" xmlns="http://www.w3.org/2000/svg">
<rect width="70" height="70" rx="15" fill="#99CCFF"/>
<mask id="mask0_6179_30941" style="mask-type:alpha" maskUnits="userSpaceOnUse" x="10" y="10" width="50" height="50">
<rect x="10" y="10" width="50" height="50" fill="#D9D9D9"/>
</mask>
<g mask="url(#mask0_6179_30941)">
<path d="M32.9165 45.4167H37.0832V32.9167H32.9165V45.4167ZM34.9998 28.7501C35.5901 28.7501 36.0853 28.5501 36.4853 28.1501C36.8839 27.7515 37.0832 27.257 37.0832 26.6667C37.0832 26.0765 36.8839 25.5813 36.4853 25.1813C36.0853 24.7827 35.5901 24.5834 34.9998 24.5834C34.4096 24.5834 33.9151 24.7827 33.5165 25.1813C33.1165 25.5813 32.9165 26.0765 32.9165 26.6667C32.9165 27.257 33.1165 27.7515 33.5165 28.1501C33.9151 28.5501 34.4096 28.7501 34.9998 28.7501ZM34.9998 55.8334C32.1179 55.8334 29.4096 55.2862 26.8748 54.1917C24.3401 53.0987 22.1353 51.6147 20.2603 49.7397C18.3853 47.8647 16.9012 45.6598 15.8082 43.1251C14.7137 40.5904 14.1665 37.882 14.1665 35.0001C14.1665 32.1181 14.7137 29.4098 15.8082 26.8751C16.9012 24.3404 18.3853 22.1355 20.2603 20.2605C22.1353 18.3855 24.3401 16.9008 26.8748 15.8063C29.4096 14.7133 32.1179 14.1667 34.9998 14.1667C37.8818 14.1667 40.5901 14.7133 43.1248 15.8063C45.6596 16.9008 47.8644 18.3855 49.7394 20.2605C51.6144 22.1355 53.0984 24.3404 54.1915 26.8751C55.2859 29.4098 55.8332 32.1181 55.8332 35.0001C55.8332 37.882 55.2859 40.5904 54.1915 43.1251C53.0984 45.6598 51.6144 47.8647 49.7394 49.7397C47.8644 51.6147 45.6596 53.0987 43.1248 54.1917C40.5901 55.2862 37.8818 55.8334 34.9998 55.8334ZM34.9998 51.6668C39.6526 51.6668 43.5936 50.0522 46.8228 46.823C50.0519 43.5938 51.6665 39.6529 51.6665 35.0001C51.6665 30.3473 50.0519 26.4063 46.8228 23.1772C43.5936 19.948 39.6526 18.3334 34.9998 18.3334C30.3471 18.3334 26.4061 19.948 23.1769 23.1772C19.9478 26.4063 18.3332 30.3473 18.3332 35.0001C18.3332 39.6529 19.9478 43.5938 23.1769 46.823C26.4061 50.0522 30.3471 51.6668 34.9998 51.6668Z" fill="#1976D2"/>
</g>
</svg>
