<svg width="70" height="70" viewBox="0 0 70 70" fill="none" xmlns="http://www.w3.org/2000/svg">
<rect width="70" height="70" rx="15" fill="#A3FFA7"/>
<mask id="mask0_6179_30957" style="mask-type:alpha" maskUnits="userSpaceOnUse" x="10" y="10" width="50" height="50">
<rect x="10" y="10" width="50" height="50" fill="#D9D9D9"/>
</mask>
<g mask="url(#mask0_6179_30957)">
<path d="M34.9998 55.8334C32.1179 55.8334 29.4096 55.2862 26.8748 54.1918C24.3401 53.0987 22.1353 51.6147 20.2603 49.7397C18.3853 47.8647 16.9012 45.6598 15.8082 43.1251C14.7137 40.5904 14.1665 37.882 14.1665 35.0001C14.1665 32.1181 14.7137 29.4098 15.8082 26.8751C16.9012 24.3404 18.3853 22.1355 20.2603 20.2605C22.1353 18.3855 24.3401 16.9008 26.8748 15.8063C29.4096 14.7133 32.1179 14.1667 34.9998 14.1667C37.2568 14.1667 39.3922 14.4966 41.4061 15.1563C43.42 15.8161 45.2776 16.7362 46.979 17.9167L43.9582 20.9897C42.6387 20.1563 41.2325 19.5049 39.7394 19.0355C38.2464 18.5674 36.6665 18.3334 34.9998 18.3334C30.3818 18.3334 26.4498 19.9563 23.204 23.2022C19.9568 26.4494 18.3332 30.382 18.3332 35.0001C18.3332 39.6181 19.9568 43.5508 23.204 46.798C26.4498 50.0438 30.3818 51.6668 34.9998 51.6668C39.6179 51.6668 43.5505 50.0438 46.7978 46.798C50.0436 43.5508 51.6665 39.6181 51.6665 35.0001C51.6665 34.3751 51.6318 33.7501 51.5623 33.1251C51.4929 32.5001 51.3887 31.8924 51.2498 31.3022L54.6353 27.9167C55.0172 29.0279 55.3123 30.1737 55.5207 31.3542C55.729 32.5348 55.8332 33.7501 55.8332 35.0001C55.8332 37.882 55.286 40.5904 54.1915 43.1251C53.0985 45.6598 51.6144 47.8647 49.7394 49.7397C47.8644 51.6147 45.6596 53.0987 43.1248 54.1918C40.5901 55.2862 37.8818 55.8334 34.9998 55.8334ZM32.0832 44.5834L23.229 35.7293L26.1457 32.8126L32.0832 38.7501L52.9165 17.8647L55.8332 20.7813L32.0832 44.5834Z" fill="#4CAF50"/>
</g>
</svg>
