<svg width="70" height="70" viewBox="0 0 70 70" fill="none" xmlns="http://www.w3.org/2000/svg">
<rect width="70" height="70" rx="15" fill="#FFEDB6"/>
<path d="M35 47.5C35.7083 47.5 36.3025 47.26 36.7825 46.78C37.2608 46.3017 37.5 45.7083 37.5 45C37.5 44.2917 37.2608 43.6975 36.7825 43.2175C36.3025 42.7392 35.7083 42.5 35 42.5C34.2917 42.5 33.6983 42.7392 33.22 43.2175C32.74 43.6975 32.5 44.2917 32.5 45C32.5 45.7083 32.74 46.3017 33.22 46.78C33.6983 47.26 34.2917 47.5 35 47.5ZM32.5 37.5H37.5V22.5H32.5V37.5ZM35 60C31.5417 60 28.2917 59.3433 25.25 58.03C22.2083 56.7183 19.5625 54.9375 17.3125 52.6875C15.0625 50.4375 13.2817 47.7917 11.97 44.75C10.6567 41.7083 10 38.4583 10 35C10 31.5417 10.6567 28.2917 11.97 25.25C13.2817 22.2083 15.0625 19.5625 17.3125 17.3125C19.5625 15.0625 22.2083 13.2808 25.25 11.9675C28.2917 10.6558 31.5417 10 35 10C38.4583 10 41.7083 10.6558 44.75 11.9675C47.7917 13.2808 50.4375 15.0625 52.6875 17.3125C54.9375 19.5625 56.7183 22.2083 58.03 25.25C59.3433 28.2917 60 31.5417 60 35C60 38.4583 59.3433 41.7083 58.03 44.75C56.7183 47.7917 54.9375 50.4375 52.6875 52.6875C50.4375 54.9375 47.7917 56.7183 44.75 58.03C41.7083 59.3433 38.4583 60 35 60ZM35 55C40.5833 55 45.3125 53.0625 49.1875 49.1875C53.0625 45.3125 55 40.5833 55 35C55 29.4167 53.0625 24.6875 49.1875 20.8125C45.3125 16.9375 40.5833 15 35 15C29.4167 15 24.6875 16.9375 20.8125 20.8125C16.9375 24.6875 15 29.4167 15 35C15 40.5833 16.9375 45.3125 20.8125 49.1875C24.6875 53.0625 29.4167 55 35 55Z" fill="#FFC107"/>
</svg>
