<svg width="34" height="34" viewBox="0 0 34 34" fill="none" xmlns="http://www.w3.org/2000/svg">
<g filter="url(#filter0_d_679_16365)">
<circle cx="17" cy="15" r="13" fill="#4CAF50"/>
</g>
<path fill-rule="evenodd" clip-rule="evenodd" d="M6 15C6 21.0751 10.9249 26 17 26C19.9174 26 22.7153 24.8411 24.7782 22.7782C26.8411 20.7153 28 17.9174 28 15C28 8.92487 23.0751 4 17 4C10.9249 4 6 8.92487 6 15ZM8 15C8 10.0294 12.0294 6 17 6C21.9706 6 26 10.0294 26 15C26 19.9706 21.9706 24 17 24C12.0294 24 8 19.9706 8 15Z" fill="#1E5B63" fill-opacity="0.3"/>
<path d="M15.0002 20C14.7344 20.0015 14.4789 19.8972 14.2902 19.71L11.2902 16.71C10.8981 16.3179 10.8981 15.6821 11.2902 15.29C11.6823 14.8979 12.3181 14.8979 12.7102 15.29L15.0002 17.59L20.7902 11.79C21.1823 11.3979 21.8181 11.3979 22.2102 11.79C22.6023 12.1821 22.6023 12.8179 22.2102 13.21L15.7102 19.71C15.5215 19.8972 15.266 20.0015 15.0002 20Z" fill="white"/>
<defs>
<filter id="filter0_d_679_16365" x="0" y="0" width="34" height="34" filterUnits="userSpaceOnUse" color-interpolation-filters="sRGB">
<feFlood flood-opacity="0" result="BackgroundImageFix"/>
<feColorMatrix in="SourceAlpha" type="matrix" values="0 0 0 0 0 0 0 0 0 0 0 0 0 0 0 0 0 0 127 0" result="hardAlpha"/>
<feOffset dy="2"/>
<feGaussianBlur stdDeviation="2"/>
<feComposite in2="hardAlpha" operator="out"/>
<feColorMatrix type="matrix" values="0 0 0 0 0 0 0 0 0 0 0 0 0 0 0 0 0 0 0.25 0"/>
<feBlend mode="normal" in2="BackgroundImageFix" result="effect1_dropShadow_679_16365"/>
<feBlend mode="normal" in="SourceGraphic" in2="effect1_dropShadow_679_16365" result="shape"/>
</filter>
</defs>
</svg>
