<svg width="22" height="18" viewBox="0 0 22 18" fill="none" xmlns="http://www.w3.org/2000/svg">
<path fill-rule="evenodd" clip-rule="evenodd" d="M3 15H19C20.6569 15 22 13.6569 22 12V3C22 1.34315 20.6569 0 19 0H3C1.34315 0 0 1.34315 0 3V12C0 13.6569 1.34315 15 3 15ZM2 3C2 2.44772 2.44772 2 3 2H19C19.5523 2 20 2.44772 20 3V12C20 12.5523 19.5523 13 19 13H3C2.44772 13 2 12.5523 2 12V3Z" fill="#1E5B63"/>
<path d="M14 18H8C7.44772 18 7 17.5523 7 17C7 16.4477 7.44772 16 8 16H14C14.5523 16 15 16.4477 15 17C15 17.5523 14.5523 18 14 18Z" fill="#1E5B63"/>
<path d="M5 11C4.44772 11 4 10.5523 4 10V8C4 7.44772 4.44772 7 5 7C5.55228 7 6 7.44772 6 8V10C6 10.5523 5.55228 11 5 11Z" fill="#1E5B63"/>
<path d="M9 11C8.44772 11 8 10.5523 8 10V7C8 6.44772 8.44772 6 9 6C9.55228 6 10 6.44772 10 7V10C10 10.5523 9.55228 11 9 11Z" fill="#1E5B63"/>
<path d="M13 11C12.4477 11 12 10.5523 12 10V6C12 5.44772 12.4477 5 13 5C13.5523 5 14 5.44772 14 6V10C14 10.5523 13.5523 11 13 11Z" fill="#1E5B63"/>
<path d="M17 11C16.4477 11 16 10.5523 16 10V5C16 4.44772 16.4477 4 17 4C17.5523 4 18 4.44772 18 5V10C18 10.5523 17.5523 11 17 11Z" fill="#1E5B63"/>
</svg>
