<svg width="60" height="60" viewBox="0 0 60 60" fill="none" xmlns="http://www.w3.org/2000/svg">
<circle cx="30" cy="30" r="30" fill="#CBA770"/>
<path d="M43.5 16.5H16.5C14.85 16.5 13.5 17.85 13.5 19.5V24H16.5V19.5H43.5V40.5H33V43.5H43.5C45.15 43.5 46.5 42.15 46.5 40.5V19.5C46.5 17.85 45.15 16.5 43.5 16.5ZM13.5 39V43.5H18C18 41.01 15.99 39 13.5 39ZM13.5 33V36C17.64 36 21 39.36 21 43.5H24C24 37.695 19.305 33 13.5 33ZM13.5 27V30C20.955 30 27 36.045 27 43.5H30C30 34.38 22.605 27 13.5 27Z" fill="white"/>
</svg>
