<svg width="60" height="60" viewBox="0 0 60 60" fill="none" xmlns="http://www.w3.org/2000/svg">
<circle cx="30" cy="30" r="30" fill="#1E5B63"/>
<path d="M43.5 16.5H16.5C14.85 16.5 13.5 17.85 13.5 19.5V31.5H16.5V19.5H43.5V43.5C45.15 43.5 46.5 42.15 46.5 40.5V19.5C46.5 17.85 45.15 16.5 43.5 16.5Z" fill="#EEEEEE"/>
<path d="M31.5 27C31.5 23.685 28.815 21 25.5 21C22.185 21 19.5 23.685 19.5 27C19.5 30.315 22.185 33 25.5 33C28.815 33 31.5 30.315 31.5 27ZM22.5 27C22.5 25.35 23.85 24 25.5 24C27.15 24 28.5 25.35 28.5 27C28.5 28.65 27.15 30 25.5 30C23.85 30 22.5 28.65 22.5 27Z" fill="#EEEEEE"/>
<path d="M35.085 36.84C32.565 35.55 29.295 34.5 25.5 34.5C21.705 34.5 18.435 35.55 15.915 36.84C14.415 37.605 13.5 39.15 13.5 40.83V45H37.5V40.83C37.5 39.15 36.585 37.605 35.085 36.84ZM34.5 42H16.5C16.5 40.92 16.35 39.99 17.28 39.51C19.065 38.595 21.945 37.5 25.5 37.5C29.055 37.5 31.935 38.595 33.72 39.51C34.665 39.99 34.5 40.935 34.5 42Z" fill="#EEEEEE"/>
</svg>
