<svg width="20" height="24" viewBox="0 0 20 24" fill="none" xmlns="http://www.w3.org/2000/svg">
<path fill-rule="evenodd" clip-rule="evenodd" d="M19 0H3.5C1.567 0 0 1.567 0 3.5V20.5C0 22.433 1.567 24 3.5 24H19C19.5523 24 20 23.5523 20 23V1C20 0.447715 19.5523 0 19 0ZM3.5 2H18V17H3.5C2.98001 17.0021 2.46723 17.1218 2 17.35V3.5C2 2.67157 2.67157 2 3.5 2ZM3.5 22H18V19H3.5C2.67157 19 2 19.6716 2 20.5C2 21.3284 2.67157 22 3.5 22Z" fill="#1E5B63"/>
<path d="M7 6H13C13.5523 6 14 5.55228 14 5C14 4.44772 13.5523 4 13 4H7C6.44772 4 6 4.44772 6 5C6 5.55228 6.44772 6 7 6Z" fill="#1E5B63"/>
</svg>
