<svg width="22" height="22" viewBox="0 0 22 22" fill="none" xmlns="http://www.w3.org/2000/svg">
<path fill-rule="evenodd" clip-rule="evenodd" d="M19 0H8C6.34315 0 5 1.34315 5 3V5H3C1.34315 5 0 6.34315 0 8V19C0 20.6569 1.34315 22 3 22H14C15.6569 22 17 20.6569 17 19V17H19C20.6569 17 22 15.6569 22 14V3C22 1.34315 20.6569 0 19 0ZM15 19C15 19.5523 14.5523 20 14 20H3C2.44772 20 2 19.5523 2 19V8C2 7.44772 2.44772 7 3 7H14C14.5523 7 15 7.44772 15 8V19ZM19 15C19.5523 15 20 14.5523 20 14V3C20 2.44772 19.5523 2 19 2H8C7.44772 2 7 2.44772 7 3V5H14C15.6569 5 17 6.34315 17 8V15H19Z" fill="#1E5B63"/>
<path fill-rule="evenodd" clip-rule="evenodd" d="M5 8H6C7.10457 8 8 8.89543 8 10V11C8 12.1046 7.10457 13 6 13H5C3.89543 13 3 12.1046 3 11V10C3 8.89543 3.89543 8 5 8ZM5 10V11H6V10H5Z" fill="#1E5B63"/>
<path fill-rule="evenodd" clip-rule="evenodd" d="M11 8H12C13.1046 8 14 8.89543 14 10V11C14 12.1046 13.1046 13 12 13H11C9.89543 13 9 12.1046 9 11V10C9 8.89543 9.89543 8 11 8ZM11 10V11H12V10H11Z" fill="#1E5B63"/>
<path fill-rule="evenodd" clip-rule="evenodd" d="M5 14H6C7.10457 14 8 14.8954 8 16V17C8 18.1046 7.10457 19 6 19H5C3.89543 19 3 18.1046 3 17V16C3 14.8954 3.89543 14 5 14ZM5 16V17H6V16H5Z" fill="#1E5B63"/>
<path fill-rule="evenodd" clip-rule="evenodd" d="M11 14H12C13.1046 14 14 14.8954 14 16V17C14 18.1046 13.1046 19 12 19H11C9.89543 19 9 18.1046 9 17V16C9 14.8954 9.89543 14 11 14ZM11 16V17H12V16H11Z" fill="#1E5B63"/>
</svg>
