<svg width="21" height="22" viewBox="0 0 21 22" fill="none" xmlns="http://www.w3.org/2000/svg">
<path fillRule="evenodd" clipRule="evenodd" d="M2.16663 17C2.16663 17.5523 2.633 18 3.20829 18H17.7916C18.3669 18 18.8333 17.5523 18.8333 17V10C18.8333 5.58172 15.1023 2 10.5 2C5.89759 2 2.16663 5.58172 2.16663 10V17ZM16.75 10V16H4.24996V10C4.24996 6.68629 7.04818 4 10.5 4C13.9517 4 16.75 6.68629 16.75 10Z" fill="#1E5B63"/>
<path d="M10.5 4C9.92468 4 9.45831 3.55228 9.45831 3V1C9.45831 0.447715 9.92468 0 10.5 0C11.0753 0 11.5416 0.447715 11.5416 1V3C11.5416 3.55228 11.0753 4 10.5 4Z" fill="#1E5B63"/>
<path d="M19.875 18H1.12498C0.549683 18 0.083313 17.5523 0.083313 17C0.083313 16.4477 0.549683 16 1.12498 16H19.875C20.4503 16 20.9166 16.4477 20.9166 17C20.9166 17.5523 20.4503 18 19.875 18Z" fill="#1E5B63"/>
<path fillRule="evenodd" clipRule="evenodd" d="M7.375 19C7.375 20.6569 8.77411 22 10.5 22C12.2259 22 13.625 20.6569 13.625 19C13.625 17.3431 12.2259 16 10.5 16C8.77411 16 7.375 17.3431 7.375 19ZM9.45833 19C9.45833 18.4477 9.9247 18 10.5 18C11.0753 18 11.5417 18.4477 11.5417 19C11.5417 19.5523 11.0753 20 10.5 20C9.9247 20 9.45833 19.5523 9.45833 19Z" fill="#1E5B63"/>
</svg>
