<svg width="130" height="100" viewBox="0 0 130 100" fill="none" xmlns="http://www.w3.org/2000/svg">
<path d="M15 100C10.8333 100 7.29167 98.5417 4.375 95.625C1.45833 92.7083 0 89.1667 0 85V70H15V0L22.5 7.5L30 0L37.5 7.5L45 0L52.5 7.5L60 0L67.5 7.5L75 0L82.5 7.5L90 0V85C90 89.1667 88.5417 92.7083 85.625 95.625C82.7083 98.5417 79.1667 100 75 100H15ZM75 90C76.4167 90 77.6033 89.52 78.56 88.56C79.52 87.6033 80 86.4167 80 85V15H25V70H70V85C70 86.4167 70.48 87.6033 71.44 88.56C72.3967 89.52 73.5833 90 75 90ZM30 35V25H60V35H30ZM30 50V40H60V50H30ZM70 35C68.5833 35 67.3967 34.52 66.44 33.56C65.48 32.6033 65 31.4167 65 30C65 28.5833 65.48 27.395 66.44 26.435C67.3967 25.4783 68.5833 25 70 25C71.4167 25 72.6033 25.4783 73.56 26.435C74.52 27.395 75 28.5833 75 30C75 31.4167 74.52 32.6033 73.56 33.56C72.6033 34.52 71.4167 35 70 35ZM70 50C68.5833 50 67.3967 49.52 66.44 48.56C65.48 47.6033 65 46.4167 65 45C65 43.5833 65.48 42.395 66.44 41.435C67.3967 40.4783 68.5833 40 70 40C71.4167 40 72.6033 40.4783 73.56 41.435C74.52 42.395 75 43.5833 75 45C75 46.4167 74.52 47.6033 73.56 48.56C72.6033 49.52 71.4167 50 70 50ZM15 90H60V80H10V85C10 86.4167 10.4783 87.6033 11.435 88.56C12.395 89.52 13.5833 90 15 90Z" fill="#4CAF50"/>
<path d="M101.5 74.5L119.125 56.875L115.625 53.375L101.5 67.5L94.375 60.375L90.875 63.875L101.5 74.5ZM105 88C101.542 88 98.2917 87.3433 95.25 86.03C92.2083 84.7183 89.5625 82.9375 87.3125 80.6875C85.0625 78.4375 83.2817 75.7917 81.97 72.75C80.6567 69.7083 80 66.4583 80 63C80 59.5417 80.6567 56.2917 81.97 53.25C83.2817 50.2083 85.0625 47.5625 87.3125 45.3125C89.5625 43.0625 92.2083 41.2808 95.25 39.9675C98.2917 38.6558 101.542 38 105 38C108.458 38 111.708 38.6558 114.75 39.9675C117.792 41.2808 120.438 43.0625 122.688 45.3125C124.938 47.5625 126.718 50.2083 128.03 53.25C129.343 56.2917 130 59.5417 130 63C130 66.4583 129.343 69.7083 128.03 72.75C126.718 75.7917 124.938 78.4375 122.688 80.6875C120.438 82.9375 117.792 84.7183 114.75 86.03C111.708 87.3433 108.458 88 105 88Z" fill="#4CAF50"/>
</svg>
