<svg width="99" height="105" viewBox="0 0 99 105" fill="none" xmlns="http://www.w3.org/2000/svg">
<path d="M17.0005 4.25H26.7505L43.6255 49.25H34.2505L30.5005 38.5H13.2505L9.50049 49.25H0.125488L17.0005 4.25ZM17.6255 54.5C21.1255 54.5 24.0838 55.7083 26.5005 58.125C28.9172 60.5417 30.1255 63.5 30.1255 67C30.1255 68.6667 29.8122 70.27 29.1855 71.81C28.5622 73.3533 27.6672 74.7083 26.5005 75.875L24.6255 77.625L28.1255 81.125L35.2505 74.125L42.3755 81.25L35.3755 88.25L42.3755 95.375L35.2505 102.375L28.2505 95.375L23.0005 100.625C21.7505 101.875 20.3338 102.812 18.7505 103.435C17.1672 104.062 15.5005 104.375 13.7505 104.375C10.2505 104.375 7.33382 103.145 5.00049 100.685C2.66716 98.2283 1.50049 95.25 1.50049 91.75C1.50049 90.0833 1.83382 88.4783 2.50049 86.935C3.16716 85.395 4.08382 84.0417 5.25049 82.875L10.5005 77.625L8.75049 75.875C7.58382 74.7083 6.66716 73.375 6.00049 71.875C5.33382 70.375 5.00049 68.7917 5.00049 67.125C5.00049 63.625 6.23049 60.645 8.69049 58.185C11.1472 55.7283 14.1255 54.5 17.6255 54.5ZM17.6255 84.75L12.2505 90C12.0005 90.25 11.8338 90.52 11.7505 90.81C11.6672 91.1033 11.6255 91.4167 11.6255 91.75C11.6255 92.4167 11.8555 93 12.3155 93.5C12.7722 94 13.3338 94.25 14.0005 94.25C14.3338 94.25 14.6472 94.1883 14.9405 94.065C15.2305 93.9383 15.5005 93.75 15.7505 93.5L21.1255 88.25L17.6255 84.75ZM17.5005 64.5C16.8338 64.5 16.2722 64.75 15.8155 65.25C15.3555 65.75 15.1255 66.3333 15.1255 67C15.1255 67.3333 15.1672 67.645 15.2505 67.935C15.3338 68.2283 15.5005 68.5 15.7505 68.75L17.6255 70.5L19.2505 68.875C19.5005 68.625 19.6872 68.3533 19.8105 68.06C19.9372 67.77 20.0005 67.4583 20.0005 67.125C20.0005 66.4583 19.7505 65.8533 19.2505 65.31C18.7505 64.77 18.1672 64.5 17.5005 64.5ZM21.6255 14L15.8755 30.75H27.8755L22.1255 14H21.6255ZM76.3755 0.875C77.0422 1.95833 77.6038 3.08333 78.0605 4.25C78.5205 5.41667 78.9172 6.58333 79.2505 7.75L73.8755 9.375L99.0005 9.25V19.375H90.6255C89.7088 22.125 88.5222 24.7283 87.0655 27.185C85.6055 29.645 83.9172 31.9167 82.0005 34C84.2505 35.3333 86.5838 36.4367 89.0005 37.31C91.4172 38.1867 93.9172 38.9583 96.5005 39.625L94.1255 49.25C90.5422 48.3333 87.0638 47.2083 83.6905 45.875C80.3138 44.5417 77.0838 42.8333 74.0005 40.75C70.9172 42.75 67.6872 44.4367 64.3105 45.81C60.9372 47.1867 57.4588 48.3333 53.8755 49.25L51.6255 39.625C54.1255 38.9583 56.5838 38.1867 59.0005 37.31C61.4172 36.4367 63.7505 35.3333 66.0005 34C64.0838 31.9167 62.3972 29.645 60.9405 27.185C59.4805 24.7283 58.3338 22.125 57.5005 19.375H49.0005V9.375H71.0005C70.7505 8.29167 70.4172 7.23 70.0005 6.19C69.5838 5.14667 69.1672 4.125 68.7505 3.125L76.3755 0.875ZM89.3755 56.375L96.5005 63.375L57.6255 102.25L50.5005 95.25L89.3755 56.375ZM61.5005 59.25C63.5838 59.25 65.3538 59.9783 66.8105 61.435C68.2705 62.895 69.0005 64.6667 69.0005 66.75C69.0005 68.8333 68.2705 70.605 66.8105 72.065C65.3538 73.5217 63.5838 74.25 61.5005 74.25C59.4172 74.25 57.6472 73.5217 56.1905 72.065C54.7305 70.605 54.0005 68.8333 54.0005 66.75C54.0005 64.6667 54.7305 62.895 56.1905 61.435C57.6472 59.9783 59.4172 59.25 61.5005 59.25ZM68.1255 19.375C68.7922 20.9583 69.6255 22.4583 70.6255 23.875C71.6255 25.2917 72.7505 26.625 74.0005 27.875C75.2505 26.625 76.3755 25.2917 77.3755 23.875C78.3755 22.4583 79.2505 20.9583 80.0005 19.375H68.1255ZM86.5005 84.25C88.5838 84.25 90.3538 84.98 91.8105 86.44C93.2705 87.8967 94.0005 89.6667 94.0005 91.75C94.0005 93.8333 93.2705 95.605 91.8105 97.065C90.3538 98.5217 88.5838 99.25 86.5005 99.25C84.4172 99.25 82.6471 98.5217 81.1905 97.065C79.7305 95.605 79.0005 93.8333 79.0005 91.75C79.0005 89.6667 79.7305 87.8967 81.1905 86.44C82.6471 84.98 84.4172 84.25 86.5005 84.25Z" fill="#4CAF50"/>
</svg>
