<svg width="20" height="24" viewBox="0 0 20 24" fill="none" xmlns="http://www.w3.org/2000/svg">
<path fill-rule="evenodd" clip-rule="evenodd" d="M3 24H17C18.6569 24 20 22.6569 20 21V19C20 17.3431 18.6569 16 17 16H3C1.34315 16 0 17.3431 0 19V21C0 22.6569 1.34315 24 3 24ZM2 19C2 18.4477 2.44772 18 3 18H17C17.5523 18 18 18.4477 18 19V21C18 21.5523 17.5523 22 17 22H3C2.44772 22 2 21.5523 2 21V19Z" fill="#1E5B63"/>
<path d="M10 21C10.5523 21 11 20.5523 11 20C11 19.4477 10.5523 19 10 19C9.44772 19 9 19.4477 9 20C9 20.5523 9.44772 21 10 21Z" fill="#1E5B63"/>
<path d="M7 21C7.55228 21 8 20.5523 8 20C8 19.4477 7.55228 19 7 19C6.44772 19 6 19.4477 6 20C6 20.5523 6.44772 21 7 21Z" fill="#1E5B63"/>
<path d="M4 21C4.55228 21 5 20.5523 5 20C5 19.4477 4.55228 19 4 19C3.44772 19 3 19.4477 3 20C3 20.5523 3.44772 21 4 21Z" fill="#1E5B63"/>
<path d="M13 21C13.5523 21 14 20.5523 14 20C14 19.4477 13.5523 19 13 19C12.4477 19 12 19.4477 12 20C12 20.5523 12.4477 21 13 21Z" fill="#1E5B63"/>
<path d="M16 21C16.5523 21 17 20.5523 17 20C17 19.4477 16.5523 19 16 19C15.4477 19 15 19.4477 15 20C15 20.5523 15.4477 21 16 21Z" fill="#1E5B63"/>
<path fill-rule="evenodd" clip-rule="evenodd" d="M6 4C6 6.20914 7.79086 8 10 8C11.0609 8 12.0783 7.57857 12.8284 6.82843C13.5786 6.07828 14 5.06087 14 4C14 1.79086 12.2091 0 10 0C7.79086 0 6 1.79086 6 4ZM8 4C8 2.89543 8.89543 2 10 2C10.5304 2 11.0391 2.21071 11.4142 2.58579C11.7893 2.96086 12 3.46957 12 4C12 5.10457 11.1046 6 10 6C8.89543 6 8 5.10457 8 4Z" fill="#1E5B63"/>
<path fill-rule="evenodd" clip-rule="evenodd" d="M2 14C2 14.5523 2.44772 15 3 15H17C17.2652 15 17.5196 14.8946 17.7071 14.7071C17.8946 14.5196 18 14.2652 18 14C18 9.58172 14.4183 6 10 6C5.58172 6 2 9.58172 2 14ZM10 7.97652C12.9368 7.97652 15.442 10.1023 15.92 13H4.08C4.55798 10.1023 7.06318 7.97652 10 7.97652Z" fill="#1E5B63"/>
</svg>
