<svg width="85" height="100" viewBox="0 0 85 100" fill="none" xmlns="http://www.w3.org/2000/svg">
<path d="M45 100L43.75 85H42.5C30.6667 85 20.625 80.875 12.375 72.625C4.125 64.375 0 54.3333 0 42.5C0 30.6667 4.125 20.625 12.375 12.375C20.625 4.125 30.6667 0 42.5 0C48.4167 0 53.9367 1.10333 59.06 3.31C64.1867 5.52 68.6883 8.56167 72.565 12.435C76.4383 16.3117 79.4783 20.8117 81.685 25.935C83.895 31.0617 85 36.5833 85 42.5C85 48.75 83.98 54.75 81.94 60.5C79.8967 66.25 77.105 71.5833 73.565 76.5C70.0217 81.4167 65.8133 85.875 60.94 89.875C56.0633 93.875 50.75 97.25 45 100ZM55 81.75C60.9167 76.75 65.7283 70.8967 69.435 64.19C73.145 57.48 75 50.25 75 42.5C75 33.4167 71.855 25.7283 65.565 19.435C59.2717 13.145 51.5833 10 42.5 10C33.4167 10 25.73 13.145 19.44 19.435C13.1467 25.7283 10 33.4167 10 42.5C10 51.5833 13.1467 59.2717 19.44 65.565C25.73 71.855 33.4167 75 42.5 75H55V81.75ZM42.375 69.875C43.7917 69.875 45 69.375 46 68.375C47 67.375 47.5 66.1667 47.5 64.75C47.5 63.3333 47 62.125 46 61.125C45 60.125 43.7917 59.625 42.375 59.625C40.9583 59.625 39.75 60.125 38.75 61.125C37.75 62.125 37.25 63.3333 37.25 64.75C37.25 66.1667 37.75 67.375 38.75 68.375C39.75 69.375 40.9583 69.875 42.375 69.875ZM38.75 54H46.25C46.25 51.5 46.5 49.75 47 48.75C47.5 47.75 49.0833 45.9167 51.75 43.25C53.25 41.75 54.5 40.125 55.5 38.375C56.5 36.625 57 34.75 57 32.75C57 28.5 55.5633 25.3117 52.69 23.185C49.8133 21.0617 46.4167 20 42.5 20C38.8333 20 35.75 21.02 33.25 23.06C30.75 25.1033 29 27.5833 28 30.5L35 33.25C35.4167 31.8333 36.2083 30.4367 37.375 29.06C38.5417 27.6867 40.25 27 42.5 27C44.75 27 46.4383 27.625 47.565 28.875C48.6883 30.125 49.25 31.5 49.25 33C49.25 34.4167 48.8333 35.6867 48 36.81C47.1667 37.9367 46.1667 39.0833 45 40.25C42.0833 42.75 40.3133 44.7283 39.69 46.185C39.0633 47.645 38.75 50.25 38.75 54Z" fill="#FFC107"/>
</svg>
