<svg width="15" height="14" viewBox="0 0 15 14" fill="none" xmlns="http://www.w3.org/2000/svg">
<path d="M17 0H6.5C2.91015 0 0 2.91015 0 6.5C0 10.0899 2.91015 13 6.5 13H13.59L12.29 14.29C12.1007 14.4778 11.9942 14.7334 11.9942 15C11.9942 15.2666 12.1007 15.5222 12.29 15.71C12.4778 15.8993 12.7334 16.0058 13 16.0058C13.2666 16.0058 13.5222 15.8993 13.71 15.71L16.71 12.71C16.801 12.6149 16.8724 12.5028 16.92 12.38C17.02 12.1365 17.02 11.8635 16.92 11.62C16.8724 11.4972 16.801 11.3851 16.71 11.29L13.71 8.29C13.3179 7.89788 12.6821 7.89788 12.29 8.29C11.8979 8.68212 11.8979 9.31788 12.29 9.71L13.59 11H6.5C4.01472 11 2 8.98528 2 6.5C2 4.01472 4.01472 2 6.5 2H17C17.5523 2 18 1.55228 18 1C18 0.447715 17.5523 0 17 0Z" fill="#1E5B63"/>
</svg>
