<svg width="46" height="44" viewBox="0 0 46 44" fill="none" xmlns="http://www.w3.org/2000/svg">
<path d="M45.9163 21.9792L40.833 16.1667L41.5413 8.47917L34.0205 6.77083L30.083 0.125L22.9997 3.16667L15.9163 0.125L11.9788 6.77083L4.45801 8.45833L5.16634 16.1667L0.0830078 21.9792L5.16634 27.7917L4.45801 35.5L11.9788 37.2083L15.9163 43.875L22.9997 40.8125L30.083 43.8542L34.0205 37.2083L41.5413 35.5L40.833 27.8125L45.9163 21.9792ZM37.6872 25.0625L36.5205 26.4167L36.6872 28.1875L37.0622 32.25L33.1038 33.1458L31.3538 33.5417L30.4372 35.0833L28.3747 38.5833L24.6663 36.9792L22.9997 36.2708L21.3538 36.9792L17.6455 38.5833L15.583 35.1042L14.6663 33.5625L12.9163 33.1667L8.95801 32.2708L9.33301 28.1875L9.49967 26.4167L8.33301 25.0625L5.64551 22L8.33301 18.9167L9.49967 17.5625L9.31217 15.7708L8.93717 11.7292L12.8955 10.8333L14.6455 10.4375L15.5622 8.89583L17.6247 5.39583L21.333 7L22.9997 7.70833L24.6455 7L28.3538 5.39583L30.4163 8.89583L31.333 10.4375L33.083 10.8333L37.0413 11.7292L36.6663 15.7917L36.4997 17.5625L37.6663 18.9167L40.3538 21.9792L37.6872 25.0625Z" fill="#1E5B63"/>
<path d="M19.0202 25.6455L14.1868 20.7913L11.1035 23.8955L19.0202 31.833L34.3118 16.4997L31.2285 13.3955L19.0202 25.6455Z" fill="#1E5B63"/>
</svg>
