<svg width="42" height="42" viewBox="0 0 42 42" fill="none" xmlns="http://www.w3.org/2000/svg">
<path d="M41.8332 18.917H33.1457L39.8957 12.167L36.9582 9.20866L27.2498 18.917H23.0832V14.7503L32.7915 5.04199L29.8332 2.10449L23.0832 8.85449V0.166992H18.9165V8.85449L12.1665 2.10449L9.20817 5.04199L18.9165 14.7503V18.917H14.7498L5.0415 9.20866L2.104 12.167L8.854 18.917H0.166504V23.0837H8.854L2.104 29.8337L5.0415 32.792L14.7498 23.0837H18.9165V27.2503L9.20817 36.9587L12.1665 39.8962L18.9165 33.1462V41.8337H23.0832V33.1462L29.8332 39.8962L32.7915 36.9587L23.0832 27.2503V23.0837H27.2498L36.9582 32.792L39.8957 29.8337L33.1457 23.0837H41.8332V18.917Z" fill="#1E5B63"/>
</svg>
