<svg width="107" height="107" viewBox="0 0 107 107" fill="none" xmlns="http://www.w3.org/2000/svg">
<path d="M77.4577 106.208C85.4438 106.208 92.232 103.413 97.8223 97.8223C103.413 92.232 106.208 85.4438 106.208 77.4577H99.0202C99.0202 83.4473 96.9246 88.5392 92.7335 92.7335C88.5392 96.9246 83.4473 99.0202 77.4577 99.0202V106.208ZM0.791016 29.541H7.97852C7.97852 23.5514 10.0741 18.4595 14.2652 14.2652C18.4595 10.0741 23.5514 7.97852 29.541 7.97852V0.791016C21.5549 0.791016 14.7667 3.58615 9.17643 9.17643C3.58615 14.7667 0.791016 21.5549 0.791016 29.541ZM12.89 94.1087C4.90386 86.1226 0.910807 76.5393 0.910807 65.3587C0.910807 54.1782 4.90386 44.5948 12.89 36.6087L29.7806 19.5983C32.0966 17.2823 34.9109 16.1243 38.2235 16.1243C41.5393 16.1243 44.3553 17.2823 46.6712 19.5983C46.9907 19.9178 47.2909 20.2372 47.5721 20.5566C47.85 20.8761 48.0688 21.1955 48.2285 21.515L60.3275 9.41601C62.6434 7.10004 65.4593 5.94206 68.7752 5.94206C72.0878 5.94206 74.9021 7.10004 77.2181 9.41601C77.6174 9.81532 77.9368 10.1747 78.1764 10.4941L78.8952 11.4525C81.2112 9.85525 83.8066 9.17643 86.6816 9.41601C89.5566 9.6556 92.0323 10.8136 94.1087 12.89C95.9455 14.7268 97.0636 16.8223 97.4629 19.1766C97.8622 21.5341 97.5827 23.8709 96.6243 26.1868C97.1035 26.4264 97.5635 26.7059 98.0043 27.0254C98.442 27.3448 98.8605 27.7042 99.2598 28.1035C101.576 30.4195 102.734 33.2354 102.734 36.5512C102.734 39.8639 101.576 42.6782 99.2598 44.9941L97.3431 46.9108C97.6625 47.0705 97.982 47.2893 98.3014 47.5673C98.6209 47.8484 98.9403 48.1487 99.2598 48.4681C101.576 50.7841 102.734 53.5984 102.734 56.911C102.734 60.2268 101.576 63.0428 99.2598 65.3587L70.39 94.1087C62.4039 102.095 52.8205 106.088 41.64 106.088C30.4594 106.088 20.8761 102.095 12.89 94.1087ZM19.5983 87.4004C22.633 90.4351 26.0671 92.7112 29.9004 94.2285C33.7337 95.7459 37.6469 96.5046 41.64 96.5046C45.633 96.5046 49.5462 95.7459 53.3796 94.2285C57.2129 92.7112 60.6469 90.4351 63.6816 87.4004L92.4316 58.5306C92.9108 58.0514 93.1504 57.4924 93.1504 56.8535C93.1504 56.2146 92.9108 55.6556 92.4316 55.1764C91.9525 54.6973 91.3934 54.4577 90.7546 54.4577C90.1157 54.4577 89.5566 54.6973 89.0775 55.1764L72.1868 72.1868L65.3587 65.3587L92.4316 38.2858C92.9108 37.8066 93.1504 37.2268 93.1504 36.5464C93.1504 35.8692 92.9108 35.291 92.4316 34.8119C91.9525 34.4125 91.3934 34.1921 90.7546 34.1506C90.1157 34.1123 89.5566 34.3327 89.0775 34.8119L65.3587 58.5306L58.5306 51.8223L87.4004 22.9525C87.8796 22.4733 88.1191 21.9143 88.1191 21.2754C88.1191 20.6365 87.8796 20.0775 87.4004 19.5983C86.9212 19.1191 86.3622 18.8796 85.7233 18.8796C85.0844 18.8796 84.5254 19.1191 84.0462 19.5983L55.1764 48.4681L48.4681 41.64L70.39 19.5983C70.8691 19.1191 71.1087 18.5601 71.1087 17.9212C71.1087 17.2823 70.8691 16.7233 70.39 16.2441C69.9907 15.765 69.4524 15.5254 68.7752 15.5254C68.0948 15.5254 67.515 15.765 67.0358 16.2441L36.8483 46.4316C38.5254 50.7441 38.9247 55.2355 38.0462 59.9058C37.1677 64.5793 34.9716 68.673 31.4577 72.1868L24.7493 65.3587C27.5445 62.5636 28.9421 59.1695 28.9421 55.1764C28.9421 51.1834 27.5445 47.7893 24.7493 44.9941L39.9629 29.7806C40.4421 29.3014 40.6816 28.7424 40.6816 28.1035C40.6816 27.4646 40.4421 26.9056 39.9629 26.4264C39.4837 25.9473 38.9247 25.7268 38.2858 25.7652C37.6469 25.8067 37.0879 26.0271 36.6087 26.4264L19.5983 43.3171C16.5636 46.3518 14.2875 49.7858 12.7702 53.6191C11.2528 57.4525 10.4941 61.3657 10.4941 65.3587C10.4941 69.3518 11.2528 73.265 12.7702 77.0983C14.2875 80.9316 16.5636 84.3657 19.5983 87.4004Z" fill="#888888"/>
</svg>
