<svg width="44" height="50" viewBox="0 0 44 50" fill="none" xmlns="http://www.w3.org/2000/svg">
<path d="M35.5 50.0002H21.8542C19.6042 50.0002 17.3958 49.0627 15.8333 47.4377L0.625 31.5835L4.9375 27.771C6.22917 26.6252 8.125 26.396 9.64583 27.2085L14.6667 29.8752V9.97933C14.6667 7.10433 17 4.771 19.875 4.771C20.2292 4.771 20.5833 4.81266 20.9375 4.87516C21.125 2.16683 23.375 0.0209961 26.125 0.0209961C27.9167 0.0209961 29.4792 0.91683 30.4167 2.29183C31.0208 2.04183 31.6875 1.91683 32.375 1.91683C35.25 1.91683 37.5833 4.25016 37.5833 7.12516V7.7085C37.9167 7.646 38.2708 7.60433 38.625 7.60433C41.5 7.60433 43.8333 9.93766 43.8333 12.8127V41.6668C43.8333 46.271 40.1042 50.0002 35.5 50.0002ZM6.625 31.8335L18.8333 44.5418C19.625 45.3543 20.7083 45.8335 21.8333 45.8335H35.5C37.7917 45.8335 39.6667 43.9585 39.6667 41.6668V12.8127C39.6667 12.2293 39.2083 11.771 38.625 11.771C38.0417 11.771 37.5833 12.2293 37.5833 12.8127V25.0002H33.4167V7.12516C33.4167 6.54183 32.9583 6.0835 32.375 6.0835C31.7917 6.0835 31.3333 6.54183 31.3333 7.12516V25.0002H27.1667V5.22933C27.1667 4.646 26.7083 4.18766 26.125 4.18766C25.5417 4.18766 25.0833 4.646 25.0833 5.22933V25.0002H20.9167V9.97933C20.9167 9.396 20.4583 8.93766 19.875 8.93766C19.2917 8.93766 18.8333 9.41683 18.8333 9.97933V36.7918L7.6875 30.896L6.625 31.8335Z" fill="#1E5B63"/>
</svg>
