<svg width="16" height="24" viewBox="0 0 16 24" fill="none" xmlns="http://www.w3.org/2000/svg">
<path d="M13 12.11C12.4477 12.11 12 11.6623 12 11.11V6C12 3.79086 10.2091 2 8 2C5.79086 2 4 3.79086 4 6V11.1C4 11.6523 3.55228 12.1 3 12.1C2.44772 12.1 2 11.6523 2 11.1V6C2 2.68629 4.68629 0 8 0C11.3137 0 14 2.68629 14 6V11.11C14 11.6623 13.5523 12.11 13 12.11Z" fill="#FF5252"/>
<path d="M8 17C6.89543 17 6 16.1046 6 15C6 13.8954 6.89543 13 8 13C9.10457 13 10 13.8954 10 15C10 16.1046 9.10457 17 8 17Z" fill="#FF5252"/>
<path d="M8 19C7.44772 19 7 18.5523 7 18V16C7 15.4477 7.44772 15 8 15C8.55228 15 9 15.4477 9 16V18C9 18.5523 8.55228 19 8 19Z" fill="#FF5252"/>
<path fill-rule="evenodd" clip-rule="evenodd" d="M0 16C0 20.4183 3.58172 24 8 24C10.1217 24 12.1566 23.1571 13.6569 21.6569C15.1571 20.1566 16 18.1217 16 16C16 11.5817 12.4183 8 8 8C3.58172 8 0 11.5817 0 16ZM2 16C2 12.6863 4.68629 10 8 10C11.3137 10 14 12.6863 14 16C14 19.3137 11.3137 22 8 22C4.68629 22 2 19.3137 2 16Z" fill="#FF5252"/>
</svg>
