<svg width="18" height="24" viewBox="0 0 18 24" fill="none" xmlns="http://www.w3.org/2000/svg">
<path fill-rule="evenodd" clip-rule="evenodd" d="M2 6C2 9.86599 5.13401 13 9 13C12.866 13 16 9.86599 16 6V1C16 0.447715 15.5523 0 15 0H3C2.44772 0 2 0.447715 2 1V6ZM4 6V2H14V6C14 8.76142 11.7614 11 9 11C6.23858 11 4 8.76142 4 6Z" fill="#FFC107"/>
<path d="M17 2H1C0.447715 2 0 1.55228 0 1C0 0.447715 0.447715 0 1 0H17C17.5523 0 18 0.447715 18 1C18 1.55228 17.5523 2 17 2Z" fill="#FFC107"/>
<path fill-rule="evenodd" clip-rule="evenodd" d="M2 23C2 23.5523 2.44772 24 3 24H15C15.5523 24 16 23.5523 16 23V18C16 14.134 12.866 11 9 11C5.13401 11 2 14.134 2 18V23ZM14 18V22H4V18C4 15.2386 6.23858 13 9 13C11.7614 13 14 15.2386 14 18Z" fill="#FFC107"/>
<path d="M17 24H1C0.447715 24 0 23.5523 0 23C0 22.4477 0.447715 22 1 22H17C17.5523 22 18 22.4477 18 23C18 23.5523 17.5523 24 17 24Z" fill="#FFC107"/>
<path d="M15 19H3C2.44772 19 2 18.5523 2 18C2 17.4477 2.44772 17 3 17H15C15.5523 17 16 17.4477 16 18C16 18.5523 15.5523 19 15 19Z" fill="#FFC107"/>
</svg>
