<svg width="22" height="22" viewBox="0 0 22 22" fill="none" xmlns="http://www.w3.org/2000/svg">
<path fill-rule="evenodd" clip-rule="evenodd" d="M0 11C0 17.0751 4.92487 22 11 22C13.9174 22 16.7153 20.8411 18.7782 18.7782C20.8411 16.7153 22 13.9174 22 11C22 4.92487 17.0751 0 11 0C4.92487 0 0 4.92487 0 11ZM2 11C2 6.02944 6.02944 2 11 2C15.9706 2 20 6.02944 20 11C20 15.9706 15.9706 20 11 20C6.02944 20 2 15.9706 2 11Z" fill="#4CAF50"/>
<path d="M9.00019 16C8.73438 16.0015 8.4789 15.8972 8.29019 15.71L5.29019 12.71C4.89806 12.3179 4.89806 11.6821 5.29019 11.29C5.68231 10.8979 6.31806 10.8979 6.71019 11.29L9.00019 13.59L14.7902 7.79C15.1823 7.39788 15.8181 7.39788 16.2102 7.79C16.6023 8.18212 16.6023 8.81788 16.2102 9.21L9.71019 15.71C9.52147 15.8972 9.26599 16.0015 9.00019 16Z" fill="#4CAF50"/>
</svg>
