<svg width="105" height="101" viewBox="0 0 105 101" fill="none" xmlns="http://www.w3.org/2000/svg">
<path d="M59.625 43.25L38.375 22L45.5 15L59.625 29.125L88 0.875L95 7.875L59.625 43.25ZM65 100.5L30 90.75V98H0V43H39.75L70.75 54.5C73.5 55.5 75.73 57.25 77.44 59.75C79.1467 62.25 80 65 80 68H90C94.1667 68 97.7083 69.375 100.625 72.125C103.542 74.875 105 78.5 105 83V88L65 100.5ZM10 88H20V53H10V88ZM64.75 90L94.5 80.75C94.25 79.8333 93.6867 79.145 92.81 78.685C91.9367 78.2283 91 78 90 78H66C63.4167 78 61.0833 77.8333 59 77.5C56.9167 77.1667 54.6667 76.5833 52.25 75.75L43.625 72.75L46.5 63.25L56.5 66.5C58 67 59.75 67.375 61.75 67.625C63.75 67.875 66.5 68 70 68C70 67.0833 69.73 66.2083 69.19 65.375C68.6467 64.5417 68 64 67.25 63.75L38 53H30V80.5L64.75 90Z" fill="#1E5B63"/>
</svg>
