<svg width="250" height="138" viewBox="0 0 250 138" fill="none" xmlns="http://www.w3.org/2000/svg">
<g opacity="0.7">
<rect y="0.130035" width="249.748" height="137.87" rx="10" fill="url(#paint0_linear_3938_26427)"/>
<g filter="url(#filter0_b_3938_26427)">
<rect y="0.130035" width="249.748" height="137.87" rx="10" fill="white" fill-opacity="0.03"/>
</g>
<path fill-rule="evenodd" clip-rule="evenodd" d="M95.1694 2.43513C93.3809 0.966807 91.1384 0.164246 88.8243 0.164246H20C8.9543 0.164246 0 9.11856 0 20.1643V117.966C0 129.012 8.9543 137.966 20 137.966H229.533C234.291 137.966 238.66 136.305 242.094 133.531C245.786 130.547 244.605 125.113 240.936 122.1L95.1694 2.43513Z" fill="white" fill-opacity="0.08"/>
<path fill-rule="evenodd" clip-rule="evenodd" d="M63.5724 2.43513C61.7838 0.966811 59.5413 0.164246 57.2272 0.164246H20C8.9543 0.164246 0 9.11856 0 20.1643V117.966C0 129.012 8.9543 137.966 20 137.966H200.723C210.113 137.966 214.326 126.195 207.069 120.237L63.5724 2.43513Z" fill="white" fill-opacity="0.08"/>
<path fill-rule="evenodd" clip-rule="evenodd" d="M29.3089 2.43513C27.5203 0.966811 25.2778 0.164246 22.9637 0.164246H20C8.9543 0.164246 0 9.11856 0 20.1643V117.966C0 129.012 8.9543 137.966 20 137.966H166.46C175.85 137.966 180.062 126.195 172.805 120.237L29.3089 2.43513Z" fill="white" fill-opacity="0.08"/>
<path d="M21.092 119.087C20.7254 119.087 20.3954 119.027 20.102 118.907C19.8087 118.781 19.5587 118.604 19.352 118.377C19.152 118.144 18.9954 117.861 18.882 117.527C18.7754 117.194 18.722 116.821 18.722 116.407C18.722 115.887 18.7987 115.401 18.952 114.947C19.112 114.487 19.312 114.071 19.552 113.697C19.7987 113.317 20.072 112.984 20.372 112.697C20.672 112.404 20.9654 112.167 21.252 111.987H22.332C21.952 112.261 21.612 112.527 21.312 112.787C21.0187 113.047 20.7587 113.321 20.532 113.607C20.3054 113.887 20.1154 114.191 19.962 114.517C19.8087 114.837 19.682 115.201 19.582 115.607L19.632 115.627C19.7987 115.341 20.0187 115.104 20.292 114.917C20.5654 114.724 20.9187 114.627 21.352 114.627C21.6587 114.627 21.9387 114.677 22.192 114.777C22.4454 114.877 22.6654 115.021 22.852 115.207C23.0387 115.394 23.182 115.621 23.282 115.887C23.3887 116.154 23.442 116.451 23.442 116.777C23.442 117.117 23.3854 117.431 23.272 117.717C23.1587 117.997 22.9987 118.241 22.792 118.447C22.592 118.647 22.3454 118.804 22.052 118.917C21.7654 119.031 21.4454 119.087 21.092 119.087ZM21.082 118.377C21.562 118.377 21.932 118.247 22.192 117.987C22.4587 117.727 22.592 117.361 22.592 116.887V116.807C22.592 116.334 22.4587 115.967 22.192 115.707C21.932 115.447 21.562 115.317 21.082 115.317C20.602 115.317 20.2287 115.447 19.962 115.707C19.702 115.967 19.572 116.334 19.572 116.807V116.887C19.572 117.361 19.702 117.727 19.962 117.987C20.2287 118.247 20.602 118.377 21.082 118.377ZM27.0781 119.087C26.6515 119.087 26.2848 119.007 25.9781 118.847C25.6715 118.681 25.4181 118.444 25.2181 118.137C25.0181 117.831 24.8715 117.454 24.7781 117.007C24.6848 116.561 24.6381 116.051 24.6381 115.477C24.6381 114.911 24.6848 114.404 24.7781 113.957C24.8715 113.504 25.0181 113.124 25.2181 112.817C25.4181 112.511 25.6715 112.277 25.9781 112.117C26.2848 111.951 26.6515 111.867 27.0781 111.867C27.5048 111.867 27.8715 111.951 28.1781 112.117C28.4848 112.277 28.7381 112.511 28.9381 112.817C29.1381 113.124 29.2848 113.504 29.3781 113.957C29.4715 114.404 29.5181 114.911 29.5181 115.477C29.5181 116.051 29.4715 116.561 29.3781 117.007C29.2848 117.454 29.1381 117.831 28.9381 118.137C28.7381 118.444 28.4848 118.681 28.1781 118.847C27.8715 119.007 27.5048 119.087 27.0781 119.087ZM27.0781 118.357C27.3581 118.357 27.5981 118.304 27.7981 118.197C27.9981 118.084 28.1581 117.927 28.2781 117.727C28.4048 117.527 28.4981 117.287 28.5581 117.007C28.6181 116.721 28.6481 116.401 28.6481 116.047V114.907C28.6481 114.561 28.6181 114.244 28.5581 113.957C28.4981 113.671 28.4048 113.427 28.2781 113.227C28.1581 113.027 27.9981 112.874 27.7981 112.767C27.5981 112.654 27.3581 112.597 27.0781 112.597C26.7981 112.597 26.5581 112.654 26.3581 112.767C26.1581 112.874 25.9948 113.027 25.8681 113.227C25.7481 113.427 25.6581 113.671 25.5981 113.957C25.5381 114.244 25.5081 114.561 25.5081 114.907V116.047C25.5081 116.401 25.5381 116.721 25.5981 117.007C25.6581 117.287 25.7481 117.527 25.8681 117.727C25.9948 117.927 26.1581 118.084 26.3581 118.197C26.5581 118.304 26.7981 118.357 27.0781 118.357ZM27.0781 116.067C26.8448 116.067 26.6815 116.021 26.5881 115.927C26.5015 115.834 26.4581 115.721 26.4581 115.587V115.367C26.4581 115.234 26.5015 115.121 26.5881 115.027C26.6815 114.934 26.8448 114.887 27.0781 114.887C27.3115 114.887 27.4715 114.934 27.5581 115.027C27.6515 115.121 27.6981 115.234 27.6981 115.367V115.587C27.6981 115.721 27.6515 115.834 27.5581 115.927C27.4715 116.021 27.3115 116.067 27.0781 116.067ZM30.9242 118.967V118.237H32.9242V112.607H32.8542L31.0942 114.247L30.6042 113.717L32.4542 111.987H33.7642V118.237H35.6042V118.967H30.9242ZM36.9203 118.967V118.237H38.9203V112.607H38.8503L37.0903 114.247L36.6003 113.717L38.4503 111.987H39.7603V118.237H41.6003V118.967H36.9203ZM49.6125 116.347V115.507H52.5125V116.347H49.6125ZM63.0647 119.087C62.698 119.087 62.368 119.027 62.0747 118.907C61.7814 118.781 61.5314 118.604 61.3247 118.377C61.1247 118.144 60.968 117.861 60.8547 117.527C60.748 117.194 60.6947 116.821 60.6947 116.407C60.6947 115.887 60.7714 115.401 60.9247 114.947C61.0847 114.487 61.2847 114.071 61.5247 113.697C61.7714 113.317 62.0447 112.984 62.3447 112.697C62.6447 112.404 62.938 112.167 63.2247 111.987H64.3047C63.9247 112.261 63.5847 112.527 63.2847 112.787C62.9914 113.047 62.7314 113.321 62.5047 113.607C62.278 113.887 62.088 114.191 61.9347 114.517C61.7814 114.837 61.6547 115.201 61.5547 115.607L61.6047 115.627C61.7714 115.341 61.9914 115.104 62.2647 114.917C62.538 114.724 62.8914 114.627 63.3247 114.627C63.6314 114.627 63.9114 114.677 64.1647 114.777C64.418 114.877 64.638 115.021 64.8247 115.207C65.0114 115.394 65.1547 115.621 65.2547 115.887C65.3614 116.154 65.4147 116.451 65.4147 116.777C65.4147 117.117 65.358 117.431 65.2447 117.717C65.1314 117.997 64.9714 118.241 64.7647 118.447C64.5647 118.647 64.318 118.804 64.0247 118.917C63.738 119.031 63.418 119.087 63.0647 119.087ZM63.0547 118.377C63.5347 118.377 63.9047 118.247 64.1647 117.987C64.4314 117.727 64.5647 117.361 64.5647 116.887V116.807C64.5647 116.334 64.4314 115.967 64.1647 115.707C63.9047 115.447 63.5347 115.317 63.0547 115.317C62.5747 115.317 62.2014 115.447 61.9347 115.707C61.6747 115.967 61.5447 116.334 61.5447 116.807V116.887C61.5447 117.361 61.6747 117.727 61.9347 117.987C62.2014 118.247 62.5747 118.377 63.0547 118.377ZM66.9008 118.967V118.237H68.9008V112.607H68.8308L67.0708 114.247L66.5808 113.717L68.4308 111.987H69.7408V118.237H71.5808V118.967H66.9008ZM73.7769 118.967L76.5069 112.707H73.4469V114.007H72.6969V111.987H77.3569V112.727L74.6769 118.967H73.7769ZM83.053 112.717H79.933L79.733 115.387H79.803C79.9763 115.154 80.1696 114.971 80.383 114.837C80.5963 114.697 80.8896 114.627 81.263 114.627C81.5696 114.627 81.8496 114.677 82.103 114.777C82.363 114.871 82.5863 115.011 82.773 115.197C82.9596 115.384 83.1063 115.611 83.213 115.877C83.3196 116.137 83.373 116.437 83.373 116.777C83.373 117.117 83.3196 117.431 83.213 117.717C83.1063 117.997 82.9496 118.241 82.743 118.447C82.5363 118.647 82.2863 118.804 81.993 118.917C81.6996 119.031 81.3663 119.087 80.993 119.087C80.6996 119.087 80.4363 119.054 80.203 118.987C79.9763 118.921 79.773 118.831 79.593 118.717C79.4196 118.604 79.2663 118.477 79.133 118.337C78.9996 118.197 78.8796 118.051 78.773 117.897L79.403 117.417C79.4963 117.557 79.5896 117.684 79.683 117.797C79.783 117.911 79.8963 118.011 80.023 118.097C80.1496 118.177 80.293 118.241 80.453 118.287C80.613 118.334 80.7996 118.357 81.013 118.357C81.493 118.357 81.8596 118.227 82.113 117.967C82.373 117.707 82.503 117.347 82.503 116.887V116.807C82.503 116.347 82.373 115.987 82.113 115.727C81.853 115.467 81.4796 115.337 80.993 115.337C80.6596 115.337 80.3996 115.394 80.213 115.507C80.033 115.621 79.8663 115.761 79.713 115.927L79.003 115.827L79.253 111.987H83.053V112.717ZM91.5852 116.347V115.507H94.4852V116.347H91.5852ZM105.027 119.087C104.621 119.087 104.264 119.037 103.957 118.937C103.651 118.831 103.394 118.687 103.187 118.507C102.987 118.327 102.834 118.114 102.727 117.867C102.627 117.621 102.577 117.354 102.577 117.067C102.577 116.587 102.707 116.207 102.967 115.927C103.227 115.647 103.571 115.451 103.997 115.337V115.257C103.624 115.131 103.327 114.927 103.107 114.647C102.894 114.361 102.787 114.017 102.787 113.617C102.787 113.084 102.984 112.661 103.377 112.347C103.771 112.027 104.321 111.867 105.027 111.867C105.734 111.867 106.284 112.027 106.677 112.347C107.071 112.661 107.267 113.084 107.267 113.617C107.267 114.017 107.157 114.361 106.937 114.647C106.724 114.927 106.431 115.131 106.057 115.257V115.337C106.484 115.451 106.827 115.647 107.087 115.927C107.347 116.207 107.477 116.587 107.477 117.067C107.477 117.354 107.424 117.621 107.317 117.867C107.217 118.114 107.064 118.327 106.857 118.507C106.651 118.687 106.394 118.831 106.087 118.937C105.787 119.037 105.434 119.087 105.027 119.087ZM105.027 118.377C105.521 118.377 105.907 118.267 106.187 118.047C106.467 117.827 106.607 117.517 106.607 117.117V116.897C106.607 116.497 106.467 116.187 106.187 115.967C105.914 115.747 105.527 115.637 105.027 115.637C104.527 115.637 104.137 115.747 103.857 115.967C103.584 116.187 103.447 116.497 103.447 116.897V117.117C103.447 117.517 103.587 117.827 103.867 118.047C104.147 118.267 104.534 118.377 105.027 118.377ZM105.027 114.957C105.481 114.957 105.824 114.861 106.057 114.667C106.297 114.474 106.417 114.197 106.417 113.837V113.697C106.417 113.337 106.294 113.061 106.047 112.867C105.807 112.674 105.467 112.577 105.027 112.577C104.587 112.577 104.244 112.674 103.997 112.867C103.757 113.061 103.637 113.337 103.637 113.697V113.837C103.637 114.197 103.754 114.474 103.987 114.667C104.227 114.861 104.574 114.957 105.027 114.957ZM108.873 118.967V118.237H110.873V112.607H110.803L109.043 114.247L108.553 113.717L110.403 111.987H111.713V118.237H113.553V118.967H108.873ZM119.38 114.547C119.38 115.067 119.3 115.557 119.14 116.017C118.986 116.471 118.786 116.887 118.54 117.267C118.293 117.641 118.02 117.974 117.72 118.267C117.426 118.554 117.136 118.787 116.85 118.967H115.77C116.15 118.694 116.486 118.427 116.78 118.167C117.08 117.907 117.343 117.637 117.57 117.357C117.796 117.071 117.986 116.767 118.14 116.447C118.293 116.121 118.42 115.754 118.52 115.347L118.47 115.327C118.296 115.614 118.073 115.854 117.8 116.047C117.533 116.234 117.183 116.327 116.75 116.327C116.443 116.327 116.16 116.277 115.9 116.177C115.646 116.077 115.426 115.934 115.24 115.747C115.06 115.561 114.916 115.337 114.81 115.077C114.71 114.811 114.66 114.511 114.66 114.177C114.66 113.837 114.713 113.527 114.82 113.247C114.933 112.961 115.093 112.717 115.3 112.517C115.506 112.311 115.753 112.151 116.04 112.037C116.333 111.924 116.656 111.867 117.01 111.867C117.376 111.867 117.706 111.931 118 112.057C118.293 112.177 118.54 112.354 118.74 112.587C118.946 112.814 119.103 113.094 119.21 113.427C119.323 113.761 119.38 114.134 119.38 114.547ZM117.02 115.637C117.5 115.637 117.87 115.507 118.13 115.247C118.396 114.987 118.53 114.621 118.53 114.147V114.067C118.53 113.594 118.396 113.227 118.13 112.967C117.87 112.707 117.5 112.577 117.02 112.577C116.54 112.577 116.166 112.707 115.9 112.967C115.64 113.227 115.51 113.594 115.51 114.067V114.147C115.51 114.621 115.64 114.987 115.9 115.247C116.166 115.507 116.54 115.637 117.02 115.637ZM125.386 118.967H120.726V118.107L123.056 116.007C123.396 115.701 123.676 115.387 123.896 115.067C124.116 114.741 124.226 114.397 124.226 114.037V113.917C124.226 113.497 124.116 113.174 123.896 112.947C123.676 112.714 123.349 112.597 122.916 112.597C122.489 112.597 122.159 112.707 121.926 112.927C121.699 113.141 121.529 113.427 121.416 113.787L120.666 113.507C120.732 113.301 120.822 113.101 120.936 112.907C121.056 112.707 121.206 112.531 121.386 112.377C121.566 112.224 121.782 112.101 122.036 112.007C122.296 111.914 122.596 111.867 122.936 111.867C123.282 111.867 123.589 111.917 123.856 112.017C124.129 112.117 124.356 112.257 124.536 112.437C124.722 112.617 124.862 112.831 124.956 113.077C125.056 113.324 125.106 113.594 125.106 113.887C125.106 114.154 125.066 114.404 124.986 114.637C124.912 114.871 124.806 115.094 124.666 115.307C124.532 115.521 124.369 115.731 124.176 115.937C123.989 116.137 123.779 116.337 123.546 116.537L121.596 118.237H125.386V118.967ZM133.558 116.347V115.507H136.458V116.347H133.558ZM149.37 118.967H144.71V118.107L147.04 116.007C147.38 115.701 147.66 115.387 147.88 115.067C148.1 114.741 148.21 114.397 148.21 114.037V113.917C148.21 113.497 148.1 113.174 147.88 112.947C147.66 112.714 147.333 112.597 146.9 112.597C146.473 112.597 146.143 112.707 145.91 112.927C145.683 113.141 145.513 113.427 145.4 113.787L144.65 113.507C144.717 113.301 144.807 113.101 144.92 112.907C145.04 112.707 145.19 112.531 145.37 112.377C145.55 112.224 145.767 112.101 146.02 112.007C146.28 111.914 146.58 111.867 146.92 111.867C147.267 111.867 147.573 111.917 147.84 112.017C148.113 112.117 148.34 112.257 148.52 112.437C148.707 112.617 148.847 112.831 148.94 113.077C149.04 113.324 149.09 113.594 149.09 113.887C149.09 114.154 149.05 114.404 148.97 114.637C148.897 114.871 148.79 115.094 148.65 115.307C148.517 115.521 148.353 115.731 148.16 115.937C147.973 116.137 147.763 116.337 147.53 116.537L145.58 118.237H149.37V118.967ZM152.696 114.947C153.183 114.947 153.546 114.841 153.786 114.627C154.033 114.407 154.156 114.127 154.156 113.787V113.717C154.156 113.344 154.036 113.064 153.796 112.877C153.563 112.691 153.256 112.597 152.876 112.597C152.503 112.597 152.199 112.681 151.966 112.847C151.739 113.007 151.553 113.221 151.406 113.487L150.776 113.007C150.863 112.867 150.969 112.731 151.096 112.597C151.223 112.457 151.369 112.334 151.536 112.227C151.709 112.121 151.906 112.034 152.126 111.967C152.353 111.901 152.609 111.867 152.896 111.867C153.196 111.867 153.476 111.907 153.736 111.987C153.996 112.061 154.223 112.174 154.416 112.327C154.609 112.474 154.759 112.657 154.866 112.877C154.979 113.097 155.036 113.347 155.036 113.627C155.036 113.854 154.999 114.057 154.926 114.237C154.859 114.417 154.763 114.574 154.636 114.707C154.516 114.841 154.373 114.954 154.206 115.047C154.039 115.141 153.863 115.211 153.676 115.257V115.297C153.869 115.337 154.056 115.404 154.236 115.497C154.416 115.584 154.576 115.701 154.716 115.847C154.856 115.987 154.966 116.161 155.046 116.367C155.133 116.567 155.176 116.797 155.176 117.057C155.176 117.357 155.116 117.634 154.996 117.887C154.883 118.134 154.719 118.347 154.506 118.527C154.299 118.701 154.046 118.837 153.746 118.937C153.453 119.037 153.126 119.087 152.766 119.087C152.459 119.087 152.186 119.054 151.946 118.987C151.713 118.921 151.503 118.831 151.316 118.717C151.136 118.604 150.976 118.477 150.836 118.337C150.703 118.197 150.583 118.051 150.476 117.897L151.106 117.417C151.199 117.557 151.296 117.684 151.396 117.797C151.496 117.911 151.609 118.011 151.736 118.097C151.869 118.177 152.019 118.241 152.186 118.287C152.353 118.334 152.546 118.357 152.766 118.357C153.259 118.357 153.636 118.244 153.896 118.017C154.163 117.791 154.296 117.467 154.296 117.047V116.967C154.296 116.554 154.166 116.234 153.906 116.007C153.653 115.781 153.269 115.667 152.756 115.667H151.926V114.947H152.696ZM159.772 118.967V117.597H156.332V116.857L159.352 111.987H160.572V116.907H161.612V117.597H160.572V118.967H159.772ZM157.082 116.907H159.772V112.637H159.732L157.082 116.907ZM164.998 119.087C164.632 119.087 164.302 119.027 164.008 118.907C163.715 118.781 163.465 118.604 163.258 118.377C163.058 118.144 162.902 117.861 162.788 117.527C162.682 117.194 162.628 116.821 162.628 116.407C162.628 115.887 162.705 115.401 162.858 114.947C163.018 114.487 163.218 114.071 163.458 113.697C163.705 113.317 163.978 112.984 164.278 112.697C164.578 112.404 164.872 112.167 165.158 111.987H166.238C165.858 112.261 165.518 112.527 165.218 112.787C164.925 113.047 164.665 113.321 164.438 113.607C164.212 113.887 164.022 114.191 163.868 114.517C163.715 114.837 163.588 115.201 163.488 115.607L163.538 115.627C163.705 115.341 163.925 115.104 164.198 114.917C164.472 114.724 164.825 114.627 165.258 114.627C165.565 114.627 165.845 114.677 166.098 114.777C166.352 114.877 166.572 115.021 166.758 115.207C166.945 115.394 167.088 115.621 167.188 115.887C167.295 116.154 167.348 116.451 167.348 116.777C167.348 117.117 167.292 117.431 167.178 117.717C167.065 117.997 166.905 118.241 166.698 118.447C166.498 118.647 166.252 118.804 165.958 118.917C165.672 119.031 165.352 119.087 164.998 119.087ZM164.988 118.377C165.468 118.377 165.838 118.247 166.098 117.987C166.365 117.727 166.498 117.361 166.498 116.887V116.807C166.498 116.334 166.365 115.967 166.098 115.707C165.838 115.447 165.468 115.317 164.988 115.317C164.508 115.317 164.135 115.447 163.868 115.707C163.608 115.967 163.478 116.334 163.478 116.807V116.887C163.478 117.361 163.608 117.727 163.868 117.987C164.135 118.247 164.508 118.377 164.988 118.377Z" fill="white"/>
<path d="M22.882 93.9062V99.0762C22.882 99.3695 22.832 99.6362 22.732 99.8762C22.632 100.116 22.4887 100.32 22.302 100.486C22.122 100.653 21.9054 100.783 21.652 100.876C21.3987 100.963 21.122 101.006 20.822 101.006C20.2887 101.006 19.8487 100.87 19.502 100.596C19.1554 100.316 18.9287 99.9262 18.822 99.4262L19.622 99.2562C19.6554 99.3962 19.6987 99.5295 19.752 99.6562C19.812 99.7762 19.8887 99.8829 19.982 99.9762C20.082 100.063 20.202 100.133 20.342 100.186C20.482 100.24 20.6487 100.266 20.842 100.266C21.222 100.266 21.5154 100.16 21.722 99.9462C21.9354 99.7262 22.042 99.3862 22.042 98.9262V94.6362H19.522V93.9062H22.882ZM28.2981 100.046H28.2581C28.2048 100.173 28.1381 100.296 28.0581 100.416C27.9781 100.53 27.8781 100.63 27.7581 100.716C27.6448 100.803 27.5081 100.873 27.3481 100.926C27.1881 100.98 27.0015 101.006 26.7881 101.006C26.2481 101.006 25.8148 100.836 25.4881 100.496C25.1615 100.15 24.9981 99.6629 24.9981 99.0362V95.7262H25.7981V98.8962C25.7981 99.3695 25.9015 99.7229 26.1081 99.9562C26.3148 100.183 26.6181 100.296 27.0181 100.296C27.1781 100.296 27.3348 100.276 27.4881 100.236C27.6415 100.196 27.7781 100.136 27.8981 100.056C28.0181 99.9762 28.1148 99.8762 28.1881 99.7562C28.2615 99.6295 28.2981 99.4795 28.2981 99.3062V95.7262H29.0981V100.886H28.2981V100.046ZM33.1342 101.006C32.5942 101.006 32.1276 100.916 31.7342 100.736C31.3476 100.55 31.0176 100.303 30.7442 99.9962L31.2842 99.5262C31.5309 99.7862 31.8009 99.9862 32.0942 100.126C32.3876 100.266 32.7409 100.336 33.1542 100.336C33.5542 100.336 33.8809 100.266 34.1342 100.126C34.3942 99.9795 34.5242 99.7529 34.5242 99.4462C34.5242 99.3129 34.4976 99.2029 34.4442 99.1162C34.3976 99.0229 34.3309 98.9495 34.2442 98.8962C34.1576 98.8429 34.0609 98.8029 33.9542 98.7762C33.8476 98.7429 33.7342 98.7162 33.6142 98.6962L32.8042 98.5762C32.6242 98.5495 32.4276 98.5129 32.2142 98.4662C32.0076 98.4195 31.8176 98.3462 31.6442 98.2462C31.4709 98.1395 31.3242 97.9995 31.2042 97.8262C31.0909 97.6529 31.0342 97.4262 31.0342 97.1462C31.0342 96.8862 31.0842 96.6629 31.1842 96.4762C31.2909 96.2829 31.4376 96.1229 31.6242 95.9962C31.8109 95.8629 32.0309 95.7662 32.2842 95.7062C32.5376 95.6395 32.8142 95.6062 33.1142 95.6062C33.5809 95.6062 33.9842 95.6795 34.3242 95.8262C34.6709 95.9729 34.9676 96.1762 35.2142 96.4362L34.6942 96.9262C34.6342 96.8529 34.5576 96.7795 34.4642 96.7062C34.3776 96.6262 34.2676 96.5562 34.1342 96.4962C34.0076 96.4295 33.8576 96.3762 33.6842 96.3362C33.5109 96.2962 33.3109 96.2762 33.0842 96.2762C32.6776 96.2762 32.3642 96.3462 32.1442 96.4862C31.9309 96.6262 31.8242 96.8295 31.8242 97.0962C31.8242 97.2295 31.8476 97.3429 31.8942 97.4362C31.9476 97.5229 32.0176 97.5929 32.1042 97.6462C32.1909 97.6995 32.2876 97.7429 32.3942 97.7762C32.5076 97.8029 32.6209 97.8262 32.7342 97.8462L33.5442 97.9662C33.7309 97.9929 33.9276 98.0295 34.1342 98.0762C34.3409 98.1229 34.5309 98.1995 34.7042 98.3062C34.8776 98.4062 35.0209 98.5429 35.1342 98.7162C35.2542 98.8895 35.3142 99.1162 35.3142 99.3962C35.3142 99.9095 35.1142 100.306 34.7142 100.586C34.3209 100.866 33.7942 101.006 33.1342 101.006ZM39.3203 100.886C38.927 100.886 38.637 100.776 38.4503 100.556C38.2703 100.336 38.1803 100.053 38.1803 99.7062V96.4062H36.4603V95.7262H37.7403C37.9136 95.7262 38.0336 95.6929 38.1003 95.6262C38.1736 95.5529 38.2103 95.4295 38.2103 95.2562V93.9062H38.9803V95.7262H41.3303V96.4062H38.9803V100.206H41.3303V100.886H39.3203ZM45.3864 94.5862C45.1531 94.5862 44.9897 94.5395 44.8964 94.4462C44.8031 94.3462 44.7564 94.2229 44.7564 94.0762V93.9162C44.7564 93.7695 44.8031 93.6495 44.8964 93.5562C44.9897 93.4562 45.1531 93.4062 45.3864 93.4062C45.6197 93.4062 45.7831 93.4562 45.8764 93.5562C45.9697 93.6495 46.0164 93.7695 46.0164 93.9162V94.0762C46.0164 94.2229 45.9697 94.3462 45.8764 94.4462C45.7831 94.5395 45.6197 94.5862 45.3864 94.5862ZM43.1264 100.206H44.9864V96.4062H43.1264V95.7262H45.7864V100.206H47.5264V100.886H43.1264V100.206ZM49.0425 100.886V95.7262H49.8425V96.5662H49.8825C49.9358 96.4395 50.0025 96.3195 50.0825 96.2062C50.1625 96.0862 50.2592 95.9829 50.3725 95.8962C50.4925 95.8095 50.6325 95.7395 50.7925 95.6862C50.9525 95.6329 51.1392 95.6062 51.3525 95.6062C51.8925 95.6062 52.3258 95.7795 52.6525 96.1262C52.9792 96.4662 53.1425 96.9495 53.1425 97.5762V100.886H52.3425V97.7162C52.3425 97.2429 52.2392 96.8929 52.0325 96.6662C51.8258 96.4329 51.5225 96.3162 51.1225 96.3162C50.9625 96.3162 50.8058 96.3362 50.6525 96.3762C50.4992 96.4162 50.3625 96.4762 50.2425 96.5562C50.1225 96.6362 50.0258 96.7395 49.9525 96.8662C49.8792 96.9929 49.8425 97.1395 49.8425 97.3062V100.886H49.0425ZM60.9347 93.9062H63.3047C63.9047 93.9062 64.3747 94.0695 64.7147 94.3962C65.0547 94.7229 65.2247 95.1595 65.2247 95.7062C65.2247 96.1262 65.1214 96.4562 64.9147 96.6962C64.7147 96.9362 64.4547 97.1062 64.1347 97.2062V97.2362C64.528 97.3295 64.8514 97.5062 65.1047 97.7662C65.358 98.0195 65.4847 98.3895 65.4847 98.8762C65.4847 99.1562 65.438 99.4195 65.3447 99.6662C65.2514 99.9129 65.118 100.126 64.9447 100.306C64.778 100.486 64.578 100.63 64.3447 100.736C64.118 100.836 63.8714 100.886 63.6047 100.886H60.9347V93.9062ZM63.3547 100.156C63.7414 100.156 64.0447 100.07 64.2647 99.8962C64.4847 99.7229 64.5947 99.4562 64.5947 99.0962V98.6862C64.5947 98.3329 64.4847 98.0695 64.2647 97.8962C64.0447 97.7162 63.7414 97.6262 63.3547 97.6262H61.7747V100.156H63.3547ZM63.2147 96.9362C63.568 96.9362 63.8447 96.8595 64.0447 96.7062C64.2447 96.5462 64.3447 96.3062 64.3447 95.9862V95.5962C64.3447 95.2762 64.2447 95.0362 64.0447 94.8762C63.8447 94.7162 63.568 94.6362 63.2147 94.6362H61.7747V96.9362H63.2147ZM69.3708 94.5862C69.1374 94.5862 68.9741 94.5395 68.8808 94.4462C68.7874 94.3462 68.7408 94.2229 68.7408 94.0762V93.9162C68.7408 93.7695 68.7874 93.6495 68.8808 93.5562C68.9741 93.4562 69.1374 93.4062 69.3708 93.4062C69.6041 93.4062 69.7674 93.4562 69.8608 93.5562C69.9541 93.6495 70.0008 93.7695 70.0008 93.9162V94.0762C70.0008 94.2229 69.9541 94.3462 69.8608 94.4462C69.7674 94.5395 69.6041 94.5862 69.3708 94.5862ZM67.1108 100.206H68.9708V96.4062H67.1108V95.7262H69.7708V100.206H71.5108V100.886H67.1108V100.206ZM75.1369 101.006C74.7635 101.006 74.4269 100.943 74.1269 100.816C73.8335 100.69 73.5802 100.51 73.3669 100.276C73.1602 100.036 73.0002 99.7529 72.8869 99.4262C72.7735 99.0929 72.7169 98.7229 72.7169 98.3162C72.7169 97.9029 72.7735 97.5295 72.8869 97.1962C73.0069 96.8629 73.1702 96.5795 73.3769 96.3462C73.5835 96.1062 73.8302 95.9229 74.1169 95.7962C74.4102 95.6695 74.7335 95.6062 75.0869 95.6062C75.4335 95.6062 75.7469 95.6695 76.0269 95.7962C76.3135 95.9229 76.5569 96.0995 76.7569 96.3262C76.9569 96.5462 77.1102 96.8095 77.2169 97.1162C77.3235 97.4229 77.3769 97.7595 77.3769 98.1262V98.5062H73.5569V98.7462C73.5569 98.9729 73.5935 99.1829 73.6669 99.3762C73.7402 99.5695 73.8435 99.7362 73.9769 99.8762C74.1169 100.016 74.2835 100.126 74.4769 100.206C74.6769 100.28 74.8969 100.316 75.1369 100.316C75.4835 100.316 75.7835 100.236 76.0369 100.076C76.2902 99.9162 76.4835 99.6962 76.6169 99.4162L77.2069 99.8162C77.0535 100.163 76.7969 100.45 76.4369 100.676C76.0835 100.896 75.6502 101.006 75.1369 101.006ZM75.0869 96.2662C74.8669 96.2662 74.6635 96.3062 74.4769 96.3862C74.2902 96.4662 74.1269 96.5762 73.9869 96.7162C73.8535 96.8562 73.7469 97.0229 73.6669 97.2162C73.5935 97.4029 73.5569 97.6095 73.5569 97.8362V97.9062H76.5169V97.7962C76.5169 97.5695 76.4802 97.3629 76.4069 97.1762C76.3402 96.9895 76.2435 96.8295 76.1169 96.6962C75.9969 96.5562 75.8469 96.4495 75.6669 96.3762C75.4935 96.3029 75.3002 96.2662 75.0869 96.2662ZM78.993 93.4862H79.793V96.5662H79.833C80.1663 95.9262 80.6963 95.6062 81.423 95.6062C82.0563 95.6062 82.5496 95.8429 82.903 96.3162C83.263 96.7895 83.443 97.4529 83.443 98.3062C83.443 99.1595 83.263 99.8229 82.903 100.296C82.5496 100.77 82.0563 101.006 81.423 101.006C80.6963 101.006 80.1663 100.686 79.833 100.046H79.793V100.886H78.993V93.4862ZM81.113 100.296C81.5796 100.296 81.9396 100.156 82.193 99.8762C82.453 99.5895 82.583 99.2129 82.583 98.7462V97.8662C82.583 97.3995 82.453 97.0262 82.193 96.7462C81.9396 96.4595 81.5796 96.3162 81.113 96.3162C80.933 96.3162 80.763 96.3395 80.603 96.3862C80.443 96.4329 80.303 96.5029 80.183 96.5962C80.063 96.6829 79.9663 96.7929 79.893 96.9262C79.8263 97.0529 79.793 97.2029 79.793 97.3762V99.2362C79.793 99.4095 79.8263 99.5629 79.893 99.6962C79.9663 99.8229 80.063 99.9329 80.183 100.026C80.303 100.113 80.443 100.18 80.603 100.226C80.763 100.273 80.933 100.296 81.113 100.296ZM87.1291 101.006C86.7557 101.006 86.4191 100.943 86.1191 100.816C85.8257 100.69 85.5724 100.51 85.3591 100.276C85.1524 100.036 84.9924 99.7529 84.8791 99.4262C84.7657 99.0929 84.7091 98.7229 84.7091 98.3162C84.7091 97.9029 84.7657 97.5295 84.8791 97.1962C84.9991 96.8629 85.1624 96.5795 85.3691 96.3462C85.5757 96.1062 85.8224 95.9229 86.1091 95.7962C86.4024 95.6695 86.7257 95.6062 87.0791 95.6062C87.4257 95.6062 87.7391 95.6695 88.0191 95.7962C88.3057 95.9229 88.5491 96.0995 88.7491 96.3262C88.9491 96.5462 89.1024 96.8095 89.2091 97.1162C89.3157 97.4229 89.3691 97.7595 89.3691 98.1262V98.5062H85.5491V98.7462C85.5491 98.9729 85.5857 99.1829 85.6591 99.3762C85.7324 99.5695 85.8357 99.7362 85.9691 99.8762C86.1091 100.016 86.2757 100.126 86.4691 100.206C86.6691 100.28 86.8891 100.316 87.1291 100.316C87.4757 100.316 87.7757 100.236 88.0291 100.076C88.2824 99.9162 88.4757 99.6962 88.6091 99.4162L89.1991 99.8162C89.0457 100.163 88.7891 100.45 88.4291 100.676C88.0757 100.896 87.6424 101.006 87.1291 101.006ZM87.0791 96.2662C86.8591 96.2662 86.6557 96.3062 86.4691 96.3862C86.2824 96.4662 86.1191 96.5762 85.9791 96.7162C85.8457 96.8562 85.7391 97.0229 85.6591 97.2162C85.5857 97.4029 85.5491 97.6095 85.5491 97.8362V97.9062H88.5091V97.7962C88.5091 97.5695 88.4724 97.3629 88.3991 97.1762C88.3324 96.9895 88.2357 96.8295 88.1091 96.6962C87.9891 96.5562 87.8391 96.4495 87.6591 96.3762C87.4857 96.3029 87.2924 96.2662 87.0791 96.2662ZM90.8052 100.206H92.3152V96.4062H90.8052V95.7262H93.1152V97.0262H93.1652C93.2718 96.6195 93.4718 96.3029 93.7652 96.0762C94.0652 95.8429 94.4452 95.7262 94.9052 95.7262H95.6252V96.5262H94.6552C94.1952 96.5262 93.8218 96.6595 93.5352 96.9262C93.2552 97.1929 93.1152 97.5429 93.1152 97.9762V100.206H95.1152V100.886H90.8052V100.206Z" fill="white"/>
<path opacity="0.9" d="M21.922 36.6214C21.4354 36.6214 20.992 36.5414 20.592 36.3814C20.192 36.2214 19.8487 35.9881 19.562 35.6814C19.2754 35.3747 19.052 34.9981 18.892 34.5514C18.7387 34.0981 18.662 33.5814 18.662 33.0014C18.662 32.4214 18.7487 31.9081 18.922 31.4614C19.102 31.0081 19.342 30.6281 19.642 30.3214C19.942 30.0147 20.292 29.7814 20.692 29.6214C21.092 29.4614 21.5187 29.3814 21.972 29.3814C22.2587 29.3814 22.5154 29.4014 22.742 29.4414C22.9754 29.4814 23.1754 29.5281 23.342 29.5814C23.5154 29.6347 23.6554 29.6881 23.762 29.7414C23.8687 29.7947 23.942 29.8347 23.982 29.8614L23.702 30.6614C23.642 30.6214 23.5554 30.5781 23.442 30.5314C23.3287 30.4847 23.1987 30.4381 23.052 30.3914C22.912 30.3447 22.7554 30.3081 22.582 30.2814C22.4154 30.2481 22.2454 30.2314 22.072 30.2314C21.7054 30.2314 21.3754 30.2947 21.082 30.4214C20.7887 30.5481 20.5387 30.7314 20.332 30.9714C20.1254 31.2114 19.9654 31.5047 19.852 31.8514C19.7454 32.1914 19.692 32.5747 19.692 33.0014C19.692 33.4147 19.7387 33.7914 19.832 34.1314C19.932 34.4714 20.0787 34.7647 20.272 35.0114C20.4654 35.2514 20.7054 35.4381 20.992 35.5714C21.2854 35.7047 21.6254 35.7714 22.012 35.7714C22.4587 35.7714 22.8287 35.7247 23.122 35.6314C23.4154 35.5381 23.6354 35.4547 23.782 35.3814L24.032 36.1814C23.9854 36.2147 23.902 36.2581 23.782 36.3114C23.662 36.3581 23.512 36.4047 23.332 36.4514C23.152 36.4981 22.942 36.5381 22.702 36.5714C22.462 36.6047 22.202 36.6214 21.922 36.6214ZM27.0032 31.1614C27.0832 31.1614 27.1732 31.1681 27.2732 31.1814C27.3799 31.1881 27.4832 31.2014 27.5832 31.2214C27.6832 31.2347 27.7732 31.2514 27.8532 31.2714C27.9399 31.2847 28.0032 31.2981 28.0432 31.3114L27.8832 32.1214C27.8099 32.0947 27.6865 32.0647 27.5132 32.0314C27.3465 31.9914 27.1299 31.9714 26.8632 31.9714C26.6899 31.9714 26.5165 31.9914 26.3432 32.0314C26.1765 32.0647 26.0665 32.0881 26.0132 32.1014V36.4714H25.0832V31.4914C25.3032 31.4114 25.5765 31.3381 25.9032 31.2714C26.2299 31.1981 26.5965 31.1614 27.0032 31.1614ZM28.6506 33.8814C28.6506 33.4214 28.7173 33.0214 28.8506 32.6814C28.984 32.3347 29.1606 32.0481 29.3806 31.8214C29.6006 31.5947 29.854 31.4247 30.1406 31.3114C30.4273 31.1981 30.7206 31.1414 31.0206 31.1414C31.7206 31.1414 32.2573 31.3614 32.6306 31.8014C33.004 32.2347 33.1906 32.8981 33.1906 33.7914C33.1906 33.8314 33.1906 33.8847 33.1906 33.9514C33.1906 34.0114 33.1873 34.0681 33.1806 34.1214H29.6206C29.6606 34.6614 29.8173 35.0714 30.0906 35.3514C30.364 35.6314 30.7906 35.7714 31.3706 35.7714C31.6973 35.7714 31.9706 35.7447 32.1906 35.6914C32.4173 35.6314 32.5873 35.5747 32.7006 35.5214L32.8306 36.3014C32.7173 36.3614 32.5173 36.4247 32.2306 36.4914C31.9506 36.5581 31.6306 36.5914 31.2706 36.5914C30.8173 36.5914 30.424 36.5247 30.0906 36.3914C29.764 36.2514 29.494 36.0614 29.2806 35.8214C29.0673 35.5814 28.9073 35.2981 28.8006 34.9714C28.7006 34.6381 28.6506 34.2747 28.6506 33.8814ZM32.2206 33.3714C32.2273 32.9514 32.1206 32.6081 31.9006 32.3414C31.6873 32.0681 31.3906 31.9314 31.0106 31.9314C30.7973 31.9314 30.6073 31.9747 30.4406 32.0614C30.2806 32.1414 30.144 32.2481 30.0306 32.3814C29.9173 32.5147 29.8273 32.6681 29.7606 32.8414C29.7006 33.0147 29.6606 33.1914 29.6406 33.3714H32.2206ZM37.8866 32.3714C37.7732 32.2781 37.6099 32.1881 37.3966 32.1014C37.1832 32.0147 36.9499 31.9714 36.6966 31.9714C36.4299 31.9714 36.1999 32.0214 36.0066 32.1214C35.8199 32.2147 35.6666 32.3481 35.5466 32.5214C35.4266 32.6881 35.3399 32.8881 35.2866 33.1214C35.2332 33.3547 35.2066 33.6047 35.2066 33.8714C35.2066 34.4781 35.3566 34.9481 35.6566 35.2814C35.9566 35.6081 36.3566 35.7714 36.8566 35.7714C37.1099 35.7714 37.3199 35.7614 37.4866 35.7414C37.6599 35.7147 37.7932 35.6881 37.8866 35.6614V32.3714ZM37.8866 28.8714L38.8166 28.7114V36.3214C38.6032 36.3814 38.3299 36.4414 37.9966 36.5014C37.6632 36.5614 37.2799 36.5914 36.8466 36.5914C36.4466 36.5914 36.0866 36.5281 35.7666 36.4014C35.4466 36.2747 35.1732 36.0947 34.9466 35.8614C34.7199 35.6281 34.5432 35.3447 34.4166 35.0114C34.2966 34.6714 34.2366 34.2914 34.2366 33.8714C34.2366 33.4714 34.2866 33.1047 34.3866 32.7714C34.4932 32.4381 34.6466 32.1514 34.8466 31.9114C35.0466 31.6714 35.2899 31.4847 35.5766 31.3514C35.8699 31.2181 36.2032 31.1514 36.5766 31.1514C36.8766 31.1514 37.1399 31.1914 37.3666 31.2714C37.5999 31.3514 37.7732 31.4281 37.8866 31.5014V28.8714ZM41.3452 36.4714H40.4152V31.2714H41.3452V36.4714ZM40.8752 30.3314C40.7086 30.3314 40.5652 30.2781 40.4452 30.1714C40.3319 30.0581 40.2752 29.9081 40.2752 29.7214C40.2752 29.5347 40.3319 29.3881 40.4452 29.2814C40.5652 29.1681 40.7086 29.1114 40.8752 29.1114C41.0419 29.1114 41.1819 29.1681 41.2952 29.2814C41.4152 29.3881 41.4752 29.5347 41.4752 29.7214C41.4752 29.9081 41.4152 30.0581 41.2952 30.1714C41.1819 30.2781 41.0419 30.3314 40.8752 30.3314ZM43.8145 31.2714H45.7845V32.0514H43.8145V34.4514C43.8145 34.7114 43.8345 34.9281 43.8745 35.1014C43.9145 35.2681 43.9745 35.4014 44.0545 35.5014C44.1345 35.5947 44.2345 35.6614 44.3545 35.7014C44.4745 35.7414 44.6145 35.7614 44.7745 35.7614C45.0545 35.7614 45.2779 35.7314 45.4445 35.6714C45.6179 35.6047 45.7379 35.5581 45.8045 35.5314L45.9845 36.3014C45.8912 36.3481 45.7279 36.4047 45.4945 36.4714C45.2612 36.5447 44.9945 36.5814 44.6945 36.5814C44.3412 36.5814 44.0479 36.5381 43.8145 36.4514C43.5879 36.3581 43.4045 36.2214 43.2645 36.0414C43.1245 35.8614 43.0245 35.6414 42.9645 35.3814C42.9112 35.1147 42.8845 34.8081 42.8845 34.4614V29.8214L43.8145 29.6614V31.2714Z" fill="white"/>
<path d="M213.036 28.9472C213.036 29.7293 212.801 30.4939 212.362 31.1442C211.922 31.7946 211.298 32.3015 210.567 32.601C209.836 32.9005 209.032 32.979 208.256 32.8268C207.48 32.6745 206.767 32.2981 206.207 31.7454C205.648 31.1926 205.266 30.4882 205.111 29.7212C204.957 28.9542 205.035 28.1591 205.337 27.4363C205.64 26.7135 206.152 26.0955 206.809 25.6604C207.467 25.2253 208.24 24.9927 209.031 24.9919H209.035C211.246 24.9919 213.036 26.7633 213.036 28.9472ZM-nan -nanL202.752 25.0349C200.529 25.0349 198.747 26.7633 198.747 28.9257C198.747 31.1115 200.483 32.8047 202.716 32.8047C203.24 32.8047 203.702 32.7198 204.226 32.5142C204.429 32.4342 204.555 32.2326 204.555 32.0139C204.555 31.5147 203.913 31.2473 203.435 31.3899C203.23 31.451 203.016 31.4791 202.785 31.4791C201.308 31.4791 200.26 30.4194 200.26 28.9139C200.26 27.4867 201.342 26.3605 202.718 26.3605C202.972 26.3605 203.203 26.3929 203.425 26.4623C203.911 26.6152 204.557 26.3441 204.557 25.8343C204.557 25.6225 204.443 25.4243 204.248 25.3408C203.777 25.139 203.268 25.0344 202.752 25.0349L-nan -nanZM-nan -nanL196.123 28.0556C195.243 27.733 194.983 27.5219 194.983 27.1191C194.983 26.6518 195.444 26.294 196.077 26.294C196.307 26.294 196.517 26.343 196.719 26.4509C197.042 26.6237 197.466 26.629 197.69 26.3389C197.88 26.0937 197.849 25.7383 197.585 25.5751C197.059 25.2489 196.447 25.0745 195.818 25.0779C194.487 25.0779 193.472 25.991 193.472 27.2071C193.472 28.2316 193.945 28.7556 195.324 29.2463C195.899 29.4477 196.19 29.5807 196.338 29.6706C196.473 29.7502 196.584 29.8631 196.661 29.9982C196.738 30.1333 196.778 30.2859 196.777 30.4409C196.777 31.0431 196.293 31.4889 195.638 31.4889C195.212 31.4889 194.836 31.3607 194.532 31.1148C194.222 30.8644 193.75 30.7715 193.462 31.0462C193.248 31.2494 193.21 31.5819 193.404 31.8033C194.017 32.5007 194.745 32.8145 195.695 32.8145C197.22 32.8145 198.288 31.8115 198.288 30.3725C198.284 29.1935 197.79 28.6598 196.123 28.0556L-nan -nanZM-nan -nanL231.665 25.6234C231.666 25.7735 231.606 25.9176 231.499 26.0242C231.393 26.1309 231.248 26.1913 231.096 26.1924C231.02 26.1926 230.945 26.1781 230.875 26.1496C230.805 26.1211 230.742 26.0792 230.688 26.0263C230.635 25.9734 230.592 25.9106 230.564 25.8414C230.535 25.7723 230.52 25.6982 230.52 25.6234V25.6175C230.516 25.5404 230.528 25.4632 230.555 25.3908C230.582 25.3183 230.624 25.2521 230.678 25.1962C230.732 25.1402 230.797 25.0958 230.869 25.0656C230.94 25.0353 231.018 25.0199 231.096 25.0203C231.174 25.0207 231.251 25.0369 231.323 25.0679C231.395 25.0989 231.459 25.144 231.512 25.2004C231.566 25.2569 231.607 25.3236 231.633 25.3963C231.659 25.469 231.67 25.5463 231.665 25.6234L-nan -nanZM-nan -nanL231.549 25.6254C231.55 25.565 231.539 25.5051 231.516 25.4489C231.494 25.3928 231.461 25.3416 231.418 25.2982C231.376 25.2548 231.325 25.2201 231.269 25.196C231.213 25.172 231.153 25.1591 231.092 25.1581C231.031 25.1586 230.97 25.1711 230.914 25.195C230.857 25.2188 230.806 25.2534 230.764 25.2969C230.721 25.3404 230.687 25.3918 230.665 25.4482C230.643 25.5046 230.632 25.5648 230.633 25.6254C230.633 25.8834 230.839 26.0927 231.092 26.0927C231.153 26.0916 231.213 26.0787 231.269 26.0547C231.325 26.0307 231.376 25.996 231.418 25.9526C231.461 25.9092 231.494 25.8579 231.516 25.8018C231.539 25.7457 231.55 25.6857 231.549 25.6254L-nan -nanZM-nan -nanL191.068 32.6366H191.801C192.207 32.6366 192.535 32.3081 192.535 31.9028V25.9348C192.535 25.5296 192.207 25.2011 191.801 25.2011C191.396 25.2011 191.068 25.5296 191.068 25.9348V32.6366L-nan -nanZM-nan -nanL216.188 30.1965L214.368 25.6643C214.256 25.3857 213.986 25.2031 213.686 25.2031C213.16 25.2031 212.805 25.7378 213.007 26.2222L215.62 32.463C215.712 32.6842 215.929 32.8282 216.169 32.8282C216.407 32.8282 216.623 32.6858 216.716 32.4665L219.38 26.2157C219.584 25.7359 219.232 25.2031 218.71 25.2031C218.415 25.2031 218.148 25.3822 218.037 25.6562L216.188 30.1965L-nan -nanZM220.472 30.5561C220.472 31.7051 221.403 32.6366 222.552 32.6366H224.003C224.351 32.6366 224.633 32.3547 224.633 32.007C224.633 31.6593 224.351 31.3774 224.003 31.3774H222.943C222.389 31.3774 221.939 30.9279 221.939 30.3735C221.939 29.819 222.389 29.3695 222.943 29.3695H223.904C224.252 29.3695 224.534 29.0876 224.534 28.7399C224.534 28.3922 224.252 28.1104 223.904 28.1104H222.764C222.309 28.1104 221.939 27.741 221.939 27.2853C221.939 26.8296 222.309 26.4602 222.764 26.4602H224.003C224.351 26.4602 224.633 26.1784 224.633 25.8307C224.633 25.483 224.351 25.2011 224.003 25.2011H222.552C221.403 25.2011 220.472 26.1326 220.472 27.2816V30.5561ZM231.286 25.6004C231.25 25.6593 231.217 25.7422 231.261 25.796L231.29 25.8317C231.329 25.88 231.294 25.9519 231.232 25.9519C231.209 25.9519 231.186 25.9406 231.173 25.9216L231.122 25.8523C231.086 25.8035 231.009 25.8288 231.009 25.8893C231.009 25.9239 230.981 25.9519 230.946 25.9519H230.93C230.886 25.9519 230.851 25.9165 230.851 25.8728V25.5105C230.851 25.3936 230.945 25.2989 231.062 25.2989C231.222 25.2989 231.311 25.3692 231.311 25.5002C231.312 25.5383 231.303 25.5721 231.286 25.6004ZM231.157 25.5022C231.157 25.4455 231.116 25.4181 231.038 25.4181C231.023 25.4181 231.011 25.4305 231.011 25.4458V25.5605C231.011 25.5758 231.023 25.5882 231.038 25.5882C231.116 25.5882 231.157 25.5608 231.157 25.5022ZM-nan -nanL228.729 29.5044L230.235 31.4977C230.589 31.9657 230.255 32.6366 229.668 32.6366C229.433 32.6366 229.213 32.5201 229.081 32.3255L227.298 29.704C227.275 29.6696 227.236 29.6491 227.195 29.6491C227.125 29.6491 227.069 29.7052 227.069 29.7745V31.9038C227.069 32.3085 226.741 32.6366 226.337 32.6366C225.932 32.6366 225.604 32.3085 225.604 31.9038V27.3765C225.604 26.1751 226.578 25.2011 227.779 25.2011C229.47 25.2011 230.441 26.0047 230.441 27.3967C230.441 28.5366 229.832 29.2835 228.729 29.5044L-nan -nanZM-nan -nanL228.932 27.4749C228.932 26.7515 228.436 26.3742 227.522 26.3742C227.273 26.3742 227.071 26.5761 227.071 26.8251V28.1974C227.071 28.4344 227.263 28.6265 227.5 28.6265C228.436 28.6246 228.932 28.2218 228.932 27.4749L-nan -nanZM190.393 28.9257C190.39 29.4711 190.267 30.0094 190.031 30.5025C189.795 30.9957 189.453 31.4318 189.029 31.7802C188.307 32.3726 187.484 32.6385 186.345 32.6385C185.162 32.6385 184.203 31.6796 184.203 30.4967V27.3567C184.203 26.1673 185.167 25.2031 186.357 25.2031C188.734 25.2031 190.393 26.73 190.393 28.9257ZM-nan -nanL188.882 28.9139C188.882 28.2023 188.578 27.5101 188.069 27.0624C187.585 26.6284 187.009 26.4602 186.062 26.4602C185.845 26.4602 185.669 26.6364 185.669 26.8538V30.9839C185.669 31.2012 185.845 31.3774 186.062 31.3774C187.009 31.3774 187.609 31.1976 188.069 30.787C188.576 30.3412 188.882 29.6276 188.882 28.9139L-nan -nanZ" fill="white"/>
</g>
<defs>
<filter id="filter0_b_3938_26427" x="-80" y="-79.87" width="409.748" height="297.87" filterUnits="userSpaceOnUse" color-interpolation-filters="sRGB">
<feFlood flood-opacity="0" result="BackgroundImageFix"/>
<feGaussianBlur in="BackgroundImageFix" stdDeviation="40"/>
<feComposite in2="SourceAlpha" operator="in" result="effect1_backgroundBlur_3938_26427"/>
<feBlend mode="normal" in="SourceGraphic" in2="effect1_backgroundBlur_3938_26427" result="shape"/>
</filter>
<linearGradient id="paint0_linear_3938_26427" x1="-35.7848" y1="-14.7748" x2="284.736" y2="153.374" gradientUnits="userSpaceOnUse">
<stop offset="0.122247" stop-color="#FF974B"/>
<stop offset="0.878935" stop-color="#FF94A1"/>
</linearGradient>
</defs>
</svg>
