<svg width="251" height="138" viewBox="0 0 251 138" fill="none" xmlns="http://www.w3.org/2000/svg">
<g opacity="0.7">
<rect x="0.398438" y="0.130081" width="249.748" height="137.87" rx="10" fill="url(#paint0_linear_3938_26410)"/>
<g filter="url(#filter0_b_3938_26410)">
<rect x="0.398438" y="0.130081" width="249.748" height="137.87" rx="10" fill="white" fill-opacity="0.03"/>

</g>
<path fill-rule="evenodd" clip-rule="evenodd" d="M185.34 137.966C189.425 137.966 193.137 135.494 194.443 131.624C198.545 119.466 200.769 106.443 200.769 92.9008C200.769 56.9809 185.123 24.7154 160.274 2.54772C158.519 0.981768 156.231 0.164246 153.878 0.164246H20.3984C9.35274 0.164246 0.398438 9.11856 0.398438 20.1643V117.966C0.398438 129.012 9.35274 137.966 20.3984 137.966H185.34Z" fill="white" fill-opacity="0.06"/>
<path fill-rule="evenodd" clip-rule="evenodd" d="M171.842 137.966C176.072 137.966 179.884 135.315 181.066 131.254C184.195 120.502 185.872 109.132 185.872 97.3708C185.872 58.7404 167.776 24.3367 139.598 2.17466C137.908 0.846106 135.808 0.164246 133.659 0.164246H20.3984C9.35274 0.164246 0.398438 9.11856 0.398438 20.1643V117.966C0.398438 129.012 9.35274 137.966 20.3984 137.966H171.842Z" fill="white" fill-opacity="0.06"/>
<path d="M23.4905 111.587H20.3705L20.1705 114.257H20.2405C20.4138 114.024 20.6071 113.841 20.8205 113.707C21.0338 113.567 21.3271 113.497 21.7005 113.497C22.0071 113.497 22.2871 113.547 22.5405 113.647C22.8005 113.741 23.0238 113.881 23.2105 114.067C23.3971 114.254 23.5438 114.481 23.6505 114.747C23.7571 115.007 23.8105 115.307 23.8105 115.647C23.8105 115.987 23.7571 116.301 23.6505 116.587C23.5438 116.867 23.3871 117.111 23.1805 117.317C22.9738 117.517 22.7238 117.674 22.4305 117.787C22.1371 117.901 21.8038 117.957 21.4305 117.957C21.1371 117.957 20.8738 117.924 20.6405 117.857C20.4138 117.791 20.2105 117.701 20.0305 117.587C19.8571 117.474 19.7038 117.347 19.5705 117.207C19.4371 117.067 19.3171 116.921 19.2105 116.767L19.8405 116.287C19.9338 116.427 20.0271 116.554 20.1205 116.667C20.2205 116.781 20.3338 116.881 20.4605 116.967C20.5871 117.047 20.7305 117.111 20.8905 117.157C21.0505 117.204 21.2371 117.227 21.4505 117.227C21.9305 117.227 22.2971 117.097 22.5505 116.837C22.8105 116.577 22.9405 116.217 22.9405 115.757V115.677C22.9405 115.217 22.8105 114.857 22.5505 114.597C22.2905 114.337 21.9171 114.207 21.4305 114.207C21.0971 114.207 20.8371 114.264 20.6505 114.377C20.4705 114.491 20.3038 114.631 20.1505 114.797L19.4405 114.697L19.6905 110.857H23.4905V111.587ZM29.8466 117.837H25.1866V116.977L27.5166 114.877C27.8566 114.571 28.1366 114.257 28.3566 113.937C28.5766 113.611 28.6866 113.267 28.6866 112.907V112.787C28.6866 112.367 28.5766 112.044 28.3566 111.817C28.1366 111.584 27.8099 111.467 27.3766 111.467C26.9499 111.467 26.6199 111.577 26.3866 111.797C26.1599 112.011 25.9899 112.297 25.8766 112.657L25.1266 112.377C25.1932 112.171 25.2832 111.971 25.3966 111.777C25.5166 111.577 25.6666 111.401 25.8466 111.247C26.0266 111.094 26.2432 110.971 26.4966 110.877C26.7566 110.784 27.0566 110.737 27.3966 110.737C27.7432 110.737 28.0499 110.787 28.3166 110.887C28.5899 110.987 28.8166 111.127 28.9966 111.307C29.1832 111.487 29.3232 111.701 29.4166 111.947C29.5166 112.194 29.5666 112.464 29.5666 112.757C29.5666 113.024 29.5266 113.274 29.4466 113.507C29.3732 113.741 29.2666 113.964 29.1266 114.177C28.9932 114.391 28.8299 114.601 28.6366 114.807C28.4499 115.007 28.2399 115.207 28.0066 115.407L26.0566 117.107H29.8466V117.837ZM34.2527 117.837V116.467H30.8127V115.727L33.8327 110.857H35.0527V115.777H36.0927V116.467H35.0527V117.837H34.2527ZM31.5627 115.777H34.2527V111.507H34.2127L31.5627 115.777ZM41.8388 117.837H37.1788V116.977L39.5088 114.877C39.8488 114.571 40.1288 114.257 40.3488 113.937C40.5688 113.611 40.6788 113.267 40.6788 112.907V112.787C40.6788 112.367 40.5688 112.044 40.3488 111.817C40.1288 111.584 39.8021 111.467 39.3688 111.467C38.9421 111.467 38.6121 111.577 38.3788 111.797C38.1521 112.011 37.9821 112.297 37.8688 112.657L37.1188 112.377C37.1854 112.171 37.2754 111.971 37.3888 111.777C37.5088 111.577 37.6588 111.401 37.8388 111.247C38.0188 111.094 38.2354 110.971 38.4888 110.877C38.7488 110.784 39.0488 110.737 39.3888 110.737C39.7354 110.737 40.0421 110.787 40.3088 110.887C40.5821 110.987 40.8088 111.127 40.9888 111.307C41.1754 111.487 41.3154 111.701 41.4088 111.947C41.5088 112.194 41.5588 112.464 41.5588 112.757C41.5588 113.024 41.5188 113.274 41.4388 113.507C41.3654 113.741 41.2588 113.964 41.1188 114.177C40.9854 114.391 40.8221 114.601 40.6288 114.807C40.4421 115.007 40.2321 115.207 39.9988 115.407L38.0488 117.107H41.8388V117.837ZM50.0109 115.217V114.377H52.9109V115.217H50.0109ZM64.2331 117.837V116.467H60.7931V115.727L63.8131 110.857H65.0331V115.777H66.0731V116.467H65.0331V117.837H64.2331ZM61.5431 115.777H64.2331V111.507H64.1931L61.5431 115.777ZM69.1492 113.817C69.6359 113.817 69.9992 113.711 70.2392 113.497C70.4859 113.277 70.6092 112.997 70.6092 112.657V112.587C70.6092 112.214 70.4892 111.934 70.2492 111.747C70.0159 111.561 69.7092 111.467 69.3292 111.467C68.9559 111.467 68.6526 111.551 68.4192 111.717C68.1926 111.877 68.0059 112.091 67.8592 112.357L67.2292 111.877C67.3159 111.737 67.4226 111.601 67.5492 111.467C67.6759 111.327 67.8226 111.204 67.9892 111.097C68.1626 110.991 68.3592 110.904 68.5792 110.837C68.8059 110.771 69.0626 110.737 69.3492 110.737C69.6492 110.737 69.9292 110.777 70.1892 110.857C70.4492 110.931 70.6759 111.044 70.8692 111.197C71.0626 111.344 71.2126 111.527 71.3192 111.747C71.4326 111.967 71.4892 112.217 71.4892 112.497C71.4892 112.724 71.4526 112.927 71.3792 113.107C71.3126 113.287 71.2159 113.444 71.0892 113.577C70.9692 113.711 70.8259 113.824 70.6592 113.917C70.4926 114.011 70.3159 114.081 70.1292 114.127V114.167C70.3226 114.207 70.5092 114.274 70.6892 114.367C70.8692 114.454 71.0292 114.571 71.1692 114.717C71.3092 114.857 71.4192 115.031 71.4992 115.237C71.5859 115.437 71.6292 115.667 71.6292 115.927C71.6292 116.227 71.5692 116.504 71.4492 116.757C71.3359 117.004 71.1726 117.217 70.9592 117.397C70.7526 117.571 70.4992 117.707 70.1992 117.807C69.9059 117.907 69.5792 117.957 69.2192 117.957C68.9126 117.957 68.6392 117.924 68.3992 117.857C68.1659 117.791 67.9559 117.701 67.7692 117.587C67.5892 117.474 67.4292 117.347 67.2892 117.207C67.1559 117.067 67.0359 116.921 66.9292 116.767L67.5592 116.287C67.6526 116.427 67.7492 116.554 67.8492 116.667C67.9492 116.781 68.0626 116.881 68.1892 116.967C68.3226 117.047 68.4726 117.111 68.6392 117.157C68.8059 117.204 68.9992 117.227 69.2192 117.227C69.7126 117.227 70.0892 117.114 70.3492 116.887C70.6159 116.661 70.7492 116.337 70.7492 115.917V115.837C70.7492 115.424 70.6192 115.104 70.3592 114.877C70.1059 114.651 69.7226 114.537 69.2092 114.537H68.3792V113.817H69.1492ZM76.2253 117.837V116.467H72.7853V115.727L75.8053 110.857H77.0253V115.777H78.0653V116.467H77.0253V117.837H76.2253ZM73.5353 115.777H76.2253V111.507H76.1853L73.5353 115.777ZM81.1414 113.817C81.6281 113.817 81.9914 113.711 82.2314 113.497C82.4781 113.277 82.6014 112.997 82.6014 112.657V112.587C82.6014 112.214 82.4814 111.934 82.2414 111.747C82.0081 111.561 81.7014 111.467 81.3214 111.467C80.9481 111.467 80.6447 111.551 80.4114 111.717C80.1847 111.877 79.9981 112.091 79.8514 112.357L79.2214 111.877C79.3081 111.737 79.4147 111.601 79.5414 111.467C79.6681 111.327 79.8147 111.204 79.9814 111.097C80.1547 110.991 80.3514 110.904 80.5714 110.837C80.7981 110.771 81.0547 110.737 81.3414 110.737C81.6414 110.737 81.9214 110.777 82.1814 110.857C82.4414 110.931 82.6681 111.044 82.8614 111.197C83.0547 111.344 83.2047 111.527 83.3114 111.747C83.4247 111.967 83.4814 112.217 83.4814 112.497C83.4814 112.724 83.4447 112.927 83.3714 113.107C83.3047 113.287 83.2081 113.444 83.0814 113.577C82.9614 113.711 82.8181 113.824 82.6514 113.917C82.4847 114.011 82.3081 114.081 82.1214 114.127V114.167C82.3147 114.207 82.5014 114.274 82.6814 114.367C82.8614 114.454 83.0214 114.571 83.1614 114.717C83.3014 114.857 83.4114 115.031 83.4914 115.237C83.5781 115.437 83.6214 115.667 83.6214 115.927C83.6214 116.227 83.5614 116.504 83.4414 116.757C83.3281 117.004 83.1647 117.217 82.9514 117.397C82.7447 117.571 82.4914 117.707 82.1914 117.807C81.8981 117.907 81.5714 117.957 81.2114 117.957C80.9047 117.957 80.6314 117.924 80.3914 117.857C80.1581 117.791 79.9481 117.701 79.7614 117.587C79.5814 117.474 79.4214 117.347 79.2814 117.207C79.1481 117.067 79.0281 116.921 78.9214 116.767L79.5514 116.287C79.6447 116.427 79.7414 116.554 79.8414 116.667C79.9414 116.781 80.0547 116.881 80.1814 116.967C80.3147 117.047 80.4647 117.111 80.6314 117.157C80.7981 117.204 80.9914 117.227 81.2114 117.227C81.7047 117.227 82.0814 117.114 82.3414 116.887C82.6081 116.661 82.7414 116.337 82.7414 115.917V115.837C82.7414 115.424 82.6114 115.104 82.3514 114.877C82.0981 114.651 81.7147 114.537 81.2014 114.537H80.3714V113.817H81.1414ZM91.9836 115.217V114.377H94.8836V115.217H91.9836ZM105.426 117.957C105.019 117.957 104.662 117.907 104.356 117.807C104.049 117.701 103.792 117.557 103.586 117.377C103.386 117.197 103.232 116.984 103.126 116.737C103.026 116.491 102.976 116.224 102.976 115.937C102.976 115.457 103.106 115.077 103.366 114.797C103.626 114.517 103.969 114.321 104.396 114.207V114.127C104.022 114.001 103.726 113.797 103.506 113.517C103.292 113.231 103.186 112.887 103.186 112.487C103.186 111.954 103.382 111.531 103.776 111.217C104.169 110.897 104.719 110.737 105.426 110.737C106.132 110.737 106.682 110.897 107.076 111.217C107.469 111.531 107.666 111.954 107.666 112.487C107.666 112.887 107.556 113.231 107.336 113.517C107.122 113.797 106.829 114.001 106.456 114.127V114.207C106.882 114.321 107.226 114.517 107.486 114.797C107.746 115.077 107.876 115.457 107.876 115.937C107.876 116.224 107.822 116.491 107.716 116.737C107.616 116.984 107.462 117.197 107.256 117.377C107.049 117.557 106.792 117.701 106.486 117.807C106.186 117.907 105.832 117.957 105.426 117.957ZM105.426 117.247C105.919 117.247 106.306 117.137 106.586 116.917C106.866 116.697 107.006 116.387 107.006 115.987V115.767C107.006 115.367 106.866 115.057 106.586 114.837C106.312 114.617 105.926 114.507 105.426 114.507C104.926 114.507 104.536 114.617 104.256 114.837C103.982 115.057 103.846 115.367 103.846 115.767V115.987C103.846 116.387 103.986 116.697 104.266 116.917C104.546 117.137 104.932 117.247 105.426 117.247ZM105.426 113.827C105.879 113.827 106.222 113.731 106.456 113.537C106.696 113.344 106.816 113.067 106.816 112.707V112.567C106.816 112.207 106.692 111.931 106.446 111.737C106.206 111.544 105.866 111.447 105.426 111.447C104.986 111.447 104.642 111.544 104.396 111.737C104.156 111.931 104.036 112.207 104.036 112.567V112.707C104.036 113.067 104.152 113.344 104.386 113.537C104.626 113.731 104.972 113.827 105.426 113.827ZM111.122 113.817C111.609 113.817 111.972 113.711 112.212 113.497C112.459 113.277 112.582 112.997 112.582 112.657V112.587C112.582 112.214 112.462 111.934 112.222 111.747C111.989 111.561 111.682 111.467 111.302 111.467C110.929 111.467 110.625 111.551 110.392 111.717C110.165 111.877 109.979 112.091 109.832 112.357L109.202 111.877C109.289 111.737 109.395 111.601 109.522 111.467C109.649 111.327 109.795 111.204 109.962 111.097C110.135 110.991 110.332 110.904 110.552 110.837C110.779 110.771 111.035 110.737 111.322 110.737C111.622 110.737 111.902 110.777 112.162 110.857C112.422 110.931 112.649 111.044 112.842 111.197C113.035 111.344 113.185 111.527 113.292 111.747C113.405 111.967 113.462 112.217 113.462 112.497C113.462 112.724 113.425 112.927 113.352 113.107C113.285 113.287 113.189 113.444 113.062 113.577C112.942 113.711 112.799 113.824 112.632 113.917C112.465 114.011 112.289 114.081 112.102 114.127V114.167C112.295 114.207 112.482 114.274 112.662 114.367C112.842 114.454 113.002 114.571 113.142 114.717C113.282 114.857 113.392 115.031 113.472 115.237C113.559 115.437 113.602 115.667 113.602 115.927C113.602 116.227 113.542 116.504 113.422 116.757C113.309 117.004 113.145 117.217 112.932 117.397C112.725 117.571 112.472 117.707 112.172 117.807C111.879 117.907 111.552 117.957 111.192 117.957C110.885 117.957 110.612 117.924 110.372 117.857C110.139 117.791 109.929 117.701 109.742 117.587C109.562 117.474 109.402 117.347 109.262 117.207C109.129 117.067 109.009 116.921 108.902 116.767L109.532 116.287C109.625 116.427 109.722 116.554 109.822 116.667C109.922 116.781 110.035 116.881 110.162 116.967C110.295 117.047 110.445 117.111 110.612 117.157C110.779 117.204 110.972 117.227 111.192 117.227C111.685 117.227 112.062 117.114 112.322 116.887C112.589 116.661 112.722 116.337 112.722 115.917V115.837C112.722 115.424 112.592 115.104 112.332 114.877C112.079 114.651 111.695 114.537 111.182 114.537H110.352V113.817H111.122ZM118.198 117.837V116.467H114.758V115.727L117.778 110.857H118.998V115.777H120.038V116.467H118.998V117.837H118.198ZM115.508 115.777H118.198V111.507H118.158L115.508 115.777ZM123.414 117.957C123.007 117.957 122.651 117.907 122.344 117.807C122.037 117.701 121.781 117.557 121.574 117.377C121.374 117.197 121.221 116.984 121.114 116.737C121.014 116.491 120.964 116.224 120.964 115.937C120.964 115.457 121.094 115.077 121.354 114.797C121.614 114.517 121.957 114.321 122.384 114.207V114.127C122.011 114.001 121.714 113.797 121.494 113.517C121.281 113.231 121.174 112.887 121.174 112.487C121.174 111.954 121.371 111.531 121.764 111.217C122.157 110.897 122.707 110.737 123.414 110.737C124.121 110.737 124.671 110.897 125.064 111.217C125.457 111.531 125.654 111.954 125.654 112.487C125.654 112.887 125.544 113.231 125.324 113.517C125.111 113.797 124.817 114.001 124.444 114.127V114.207C124.871 114.321 125.214 114.517 125.474 114.797C125.734 115.077 125.864 115.457 125.864 115.937C125.864 116.224 125.811 116.491 125.704 116.737C125.604 116.984 125.451 117.197 125.244 117.377C125.037 117.557 124.781 117.701 124.474 117.807C124.174 117.907 123.821 117.957 123.414 117.957ZM123.414 117.247C123.907 117.247 124.294 117.137 124.574 116.917C124.854 116.697 124.994 116.387 124.994 115.987V115.767C124.994 115.367 124.854 115.057 124.574 114.837C124.301 114.617 123.914 114.507 123.414 114.507C122.914 114.507 122.524 114.617 122.244 114.837C121.971 115.057 121.834 115.367 121.834 115.767V115.987C121.834 116.387 121.974 116.697 122.254 116.917C122.534 117.137 122.921 117.247 123.414 117.247ZM123.414 113.827C123.867 113.827 124.211 113.731 124.444 113.537C124.684 113.344 124.804 113.067 124.804 112.707V112.567C124.804 112.207 124.681 111.931 124.434 111.737C124.194 111.544 123.854 111.447 123.414 111.447C122.974 111.447 122.631 111.544 122.384 111.737C122.144 111.931 122.024 112.207 122.024 112.567V112.707C122.024 113.067 122.141 113.344 122.374 113.537C122.614 113.731 122.961 113.827 123.414 113.827ZM133.956 115.217V114.377H136.856V115.217H133.956ZM148.178 117.837V116.467H144.738V115.727L147.758 110.857H148.978V115.777H150.018V116.467H148.978V117.837H148.178ZM145.488 115.777H148.178V111.507H148.138L145.488 115.777ZM153.395 117.957C152.988 117.957 152.631 117.907 152.325 117.807C152.018 117.701 151.761 117.557 151.555 117.377C151.355 117.197 151.201 116.984 151.095 116.737C150.995 116.491 150.945 116.224 150.945 115.937C150.945 115.457 151.075 115.077 151.335 114.797C151.595 114.517 151.938 114.321 152.365 114.207V114.127C151.991 114.001 151.695 113.797 151.475 113.517C151.261 113.231 151.155 112.887 151.155 112.487C151.155 111.954 151.351 111.531 151.745 111.217C152.138 110.897 152.688 110.737 153.395 110.737C154.101 110.737 154.651 110.897 155.045 111.217C155.438 111.531 155.635 111.954 155.635 112.487C155.635 112.887 155.525 113.231 155.305 113.517C155.091 113.797 154.798 114.001 154.425 114.127V114.207C154.851 114.321 155.195 114.517 155.455 114.797C155.715 115.077 155.845 115.457 155.845 115.937C155.845 116.224 155.791 116.491 155.685 116.737C155.585 116.984 155.431 117.197 155.225 117.377C155.018 117.557 154.761 117.701 154.455 117.807C154.155 117.907 153.801 117.957 153.395 117.957ZM153.395 117.247C153.888 117.247 154.275 117.137 154.555 116.917C154.835 116.697 154.975 116.387 154.975 115.987V115.767C154.975 115.367 154.835 115.057 154.555 114.837C154.281 114.617 153.895 114.507 153.395 114.507C152.895 114.507 152.505 114.617 152.225 114.837C151.951 115.057 151.815 115.367 151.815 115.767V115.987C151.815 116.387 151.955 116.697 152.235 116.917C152.515 117.137 152.901 117.247 153.395 117.247ZM153.395 113.827C153.848 113.827 154.191 113.731 154.425 113.537C154.665 113.344 154.785 113.067 154.785 112.707V112.567C154.785 112.207 154.661 111.931 154.415 111.737C154.175 111.544 153.835 111.447 153.395 111.447C152.955 111.447 152.611 111.544 152.365 111.737C152.125 111.931 152.005 112.207 152.005 112.567V112.707C152.005 113.067 152.121 113.344 152.355 113.537C152.595 113.731 152.941 113.827 153.395 113.827ZM158.121 117.837L160.851 111.577H157.791V112.877H157.041V110.857H161.701V111.597L159.021 117.837H158.121ZM165.387 117.957C164.98 117.957 164.623 117.907 164.317 117.807C164.01 117.701 163.753 117.557 163.547 117.377C163.347 117.197 163.193 116.984 163.087 116.737C162.987 116.491 162.937 116.224 162.937 115.937C162.937 115.457 163.067 115.077 163.327 114.797C163.587 114.517 163.93 114.321 164.357 114.207V114.127C163.983 114.001 163.687 113.797 163.467 113.517C163.253 113.231 163.147 112.887 163.147 112.487C163.147 111.954 163.343 111.531 163.737 111.217C164.13 110.897 164.68 110.737 165.387 110.737C166.093 110.737 166.643 110.897 167.037 111.217C167.43 111.531 167.627 111.954 167.627 112.487C167.627 112.887 167.517 113.231 167.297 113.517C167.083 113.797 166.79 114.001 166.417 114.127V114.207C166.843 114.321 167.187 114.517 167.447 114.797C167.707 115.077 167.837 115.457 167.837 115.937C167.837 116.224 167.783 116.491 167.677 116.737C167.577 116.984 167.423 117.197 167.217 117.377C167.01 117.557 166.753 117.701 166.447 117.807C166.147 117.907 165.793 117.957 165.387 117.957ZM165.387 117.247C165.88 117.247 166.267 117.137 166.547 116.917C166.827 116.697 166.967 116.387 166.967 115.987V115.767C166.967 115.367 166.827 115.057 166.547 114.837C166.273 114.617 165.887 114.507 165.387 114.507C164.887 114.507 164.497 114.617 164.217 114.837C163.943 115.057 163.807 115.367 163.807 115.767V115.987C163.807 116.387 163.947 116.697 164.227 116.917C164.507 117.137 164.893 117.247 165.387 117.247ZM165.387 113.827C165.84 113.827 166.183 113.731 166.417 113.537C166.657 113.344 166.777 113.067 166.777 112.707V112.567C166.777 112.207 166.653 111.931 166.407 111.737C166.167 111.544 165.827 111.447 165.387 111.447C164.947 111.447 164.603 111.544 164.357 111.737C164.117 111.931 163.997 112.207 163.997 112.567V112.707C163.997 113.067 164.113 113.344 164.347 113.537C164.587 113.731 164.933 113.827 165.387 113.827Z" fill="white"/>
<path d="M19.4305 93.9062H21.3805C22.2338 93.9062 22.8705 94.1995 23.2905 94.7862C23.7105 95.3729 23.9205 96.2429 23.9205 97.3962C23.9205 98.5495 23.7105 99.4195 23.2905 100.006C22.8705 100.593 22.2338 100.886 21.3805 100.886H19.4305V93.9062ZM21.3405 100.156C21.9005 100.156 22.3205 99.9629 22.6005 99.5762C22.8871 99.1895 23.0305 98.6429 23.0305 97.9362V96.8562C23.0305 96.1495 22.8871 95.6029 22.6005 95.2162C22.3205 94.8295 21.9005 94.6362 21.3405 94.6362H20.2705V100.156H21.3405ZM29.2766 93.9062V99.0762C29.2766 99.3695 29.2266 99.6362 29.1266 99.8762C29.0266 100.116 28.8832 100.32 28.6966 100.486C28.5166 100.653 28.2999 100.783 28.0466 100.876C27.7932 100.963 27.5166 101.006 27.2166 101.006C26.6832 101.006 26.2432 100.87 25.8966 100.596C25.5499 100.316 25.3232 99.9262 25.2166 99.4262L26.0166 99.2562C26.0499 99.3962 26.0932 99.5295 26.1466 99.6562C26.2066 99.7762 26.2832 99.8829 26.3766 99.9762C26.4766 100.063 26.5966 100.133 26.7366 100.186C26.8766 100.24 27.0432 100.266 27.2366 100.266C27.6166 100.266 27.9099 100.16 28.1166 99.9462C28.3299 99.7262 28.4366 99.3862 28.4366 98.9262V94.6362H25.9166V93.9062H29.2766ZM39.4488 101.006C38.8221 101.006 38.3088 100.893 37.9088 100.666C37.5088 100.433 37.1788 100.136 36.9188 99.7762L37.5288 99.2762C37.8021 99.6162 38.0888 99.8695 38.3888 100.036C38.6954 100.203 39.0588 100.286 39.4788 100.286C39.9854 100.286 40.3721 100.17 40.6388 99.9362C40.9054 99.7029 41.0388 99.3762 41.0388 98.9562C41.0388 98.6162 40.9421 98.3529 40.7488 98.1662C40.5554 97.9729 40.2188 97.8362 39.7388 97.7562L38.9588 97.6262C38.6188 97.5662 38.3321 97.4762 38.0988 97.3562C37.8721 97.2362 37.6888 97.0929 37.5488 96.9262C37.4088 96.7529 37.3088 96.5662 37.2488 96.3662C37.1888 96.1595 37.1588 95.9462 37.1588 95.7262C37.1588 95.0862 37.3688 94.6029 37.7887 94.2762C38.2088 93.9495 38.7754 93.7862 39.4888 93.7862C40.0488 93.7862 40.5188 93.8795 40.8988 94.0662C41.2854 94.2529 41.5954 94.5162 41.8288 94.8562L41.2388 95.3662C41.0454 95.1129 40.8121 94.9062 40.5388 94.7462C40.2654 94.5862 39.9121 94.5062 39.4788 94.5062C39.0054 94.5062 38.6421 94.6062 38.3888 94.8062C38.1354 95.0062 38.0088 95.3062 38.0088 95.7062C38.0088 96.0195 38.1021 96.2762 38.2888 96.4762C38.4821 96.6695 38.8254 96.8095 39.3188 96.8962L40.0688 97.0262C40.4088 97.0862 40.6954 97.1762 40.9288 97.2962C41.1621 97.4162 41.3488 97.5595 41.4888 97.7262C41.6354 97.8929 41.7388 98.0795 41.7988 98.2862C41.8588 98.4929 41.8888 98.7095 41.8888 98.9362C41.8888 99.5829 41.6754 100.09 41.2488 100.456C40.8288 100.823 40.2288 101.006 39.4488 101.006ZM43.4448 100.886V95.7262H44.2448V96.5662H44.2848C44.3382 96.4395 44.4048 96.3195 44.4848 96.2062C44.5648 96.0862 44.6615 95.9829 44.7748 95.8962C44.8948 95.8095 45.0348 95.7395 45.1948 95.6862C45.3548 95.6329 45.5415 95.6062 45.7548 95.6062C46.2948 95.6062 46.7282 95.7795 47.0548 96.1262C47.3815 96.4662 47.5448 96.9495 47.5448 97.5762V100.886H46.7448V97.7162C46.7448 97.2429 46.6415 96.8929 46.4348 96.6662C46.2282 96.4329 45.9248 96.3162 45.5248 96.3162C45.3648 96.3162 45.2082 96.3362 45.0548 96.3762C44.9015 96.4162 44.7648 96.4762 44.6448 96.5562C44.5248 96.6362 44.4282 96.7395 44.3548 96.8662C44.2815 96.9929 44.2448 97.1395 44.2448 97.3062V100.886H43.4448ZM53.4109 100.886C53.0976 100.886 52.8743 100.806 52.7409 100.646C52.6076 100.486 52.5243 100.286 52.4909 100.046H52.4409C52.3276 100.346 52.1443 100.583 51.8909 100.756C51.6443 100.923 51.3109 101.006 50.8909 101.006C50.3509 101.006 49.9209 100.866 49.6009 100.586C49.2809 100.306 49.1209 99.9229 49.1209 99.4362C49.1209 98.9562 49.2943 98.5862 49.6409 98.3262C49.9943 98.0662 50.5609 97.9362 51.3409 97.9362H52.4409V97.4262C52.4409 97.0462 52.3343 96.7629 52.1209 96.5762C51.9076 96.3829 51.6043 96.2862 51.2109 96.2862C50.8643 96.2862 50.5809 96.3562 50.3609 96.4962C50.1409 96.6295 49.9643 96.8129 49.8309 97.0462L49.2909 96.6462C49.3576 96.5129 49.4476 96.3829 49.5609 96.2562C49.6743 96.1295 49.8143 96.0195 49.9809 95.9262C50.1476 95.8262 50.3376 95.7495 50.5509 95.6962C50.7643 95.6362 51.0009 95.6062 51.2609 95.6062C51.8676 95.6062 52.3476 95.7595 52.7009 96.0662C53.0609 96.3729 53.2409 96.7995 53.2409 97.3462V100.186H53.9609V100.886H53.4109ZM51.0309 100.336C51.2376 100.336 51.4243 100.313 51.5909 100.266C51.7643 100.213 51.9143 100.146 52.0409 100.066C52.1676 99.9795 52.2643 99.8795 52.3309 99.7662C52.4043 99.6462 52.4409 99.5195 52.4409 99.3862V98.5362H51.3409C50.8609 98.5362 50.5109 98.6029 50.2909 98.7362C50.0709 98.8695 49.9609 99.0629 49.9609 99.3162V99.5262C49.9609 99.7929 50.0543 99.9962 50.2409 100.136C50.4343 100.27 50.6976 100.336 51.0309 100.336ZM55.507 93.4862H56.307V98.1562H56.347L57.247 97.3062L58.967 95.7262H59.947L57.807 97.7462L60.197 100.886H59.207L57.197 98.2062L56.307 99.0162V100.886H55.507V93.4862ZM63.5431 101.006C63.1698 101.006 62.8331 100.943 62.5331 100.816C62.2398 100.69 61.9865 100.51 61.7731 100.276C61.5665 100.036 61.4065 99.7529 61.2931 99.4262C61.1798 99.0929 61.1231 98.7229 61.1231 98.3162C61.1231 97.9029 61.1798 97.5295 61.2931 97.1962C61.4131 96.8629 61.5765 96.5795 61.7831 96.3462C61.9898 96.1062 62.2365 95.9229 62.5231 95.7962C62.8165 95.6695 63.1398 95.6062 63.4931 95.6062C63.8398 95.6062 64.1531 95.6695 64.4331 95.7962C64.7198 95.9229 64.9631 96.0995 65.1631 96.3262C65.3631 96.5462 65.5165 96.8095 65.6231 97.1162C65.7298 97.4229 65.7831 97.7595 65.7831 98.1262V98.5062H61.9631V98.7462C61.9631 98.9729 61.9998 99.1829 62.0731 99.3762C62.1465 99.5695 62.2498 99.7362 62.3831 99.8762C62.5231 100.016 62.6898 100.126 62.8831 100.206C63.0831 100.28 63.3031 100.316 63.5431 100.316C63.8898 100.316 64.1898 100.236 64.4431 100.076C64.6965 99.9162 64.8898 99.6962 65.0231 99.4162L65.6131 99.8162C65.4598 100.163 65.2031 100.45 64.8431 100.676C64.4898 100.896 64.0565 101.006 63.5431 101.006ZM63.4931 96.2662C63.2731 96.2662 63.0698 96.3062 62.8831 96.3862C62.6965 96.4662 62.5331 96.5762 62.3931 96.7162C62.2598 96.8562 62.1531 97.0229 62.0731 97.2162C61.9998 97.4029 61.9631 97.6095 61.9631 97.8362V97.9062H64.9231V97.7962C64.9231 97.5695 64.8865 97.3629 64.8131 97.1762C64.7465 96.9895 64.6498 96.8295 64.5231 96.6962C64.4031 96.5562 64.2531 96.4495 64.0731 96.3762C63.8998 96.3029 63.7065 96.2662 63.4931 96.2662Z" fill="white"/>
<path opacity="0.9" d="M22.3205 36.6214C21.8338 36.6214 21.3905 36.5414 20.9905 36.3814C20.5905 36.2214 20.2471 35.9881 19.9605 35.6814C19.6738 35.3747 19.4505 34.9981 19.2905 34.5514C19.1371 34.0981 19.0605 33.5814 19.0605 33.0014C19.0605 32.4214 19.1471 31.9081 19.3205 31.4614C19.5005 31.0081 19.7405 30.6281 20.0405 30.3214C20.3405 30.0147 20.6905 29.7814 21.0905 29.6214C21.4905 29.4614 21.9171 29.3814 22.3705 29.3814C22.6571 29.3814 22.9138 29.4014 23.1405 29.4414C23.3738 29.4814 23.5738 29.5281 23.7405 29.5814C23.9138 29.6347 24.0538 29.6881 24.1605 29.7414C24.2671 29.7947 24.3405 29.8347 24.3805 29.8614L24.1005 30.6614C24.0405 30.6214 23.9538 30.5781 23.8405 30.5314C23.7271 30.4847 23.5971 30.4381 23.4505 30.3914C23.3105 30.3447 23.1538 30.3081 22.9805 30.2814C22.8138 30.2481 22.6438 30.2314 22.4705 30.2314C22.1038 30.2314 21.7738 30.2947 21.4805 30.4214C21.1871 30.5481 20.9371 30.7314 20.7305 30.9714C20.5238 31.2114 20.3638 31.5047 20.2505 31.8514C20.1438 32.1914 20.0905 32.5747 20.0905 33.0014C20.0905 33.4147 20.1371 33.7914 20.2305 34.1314C20.3305 34.4714 20.4771 34.7647 20.6705 35.0114C20.8638 35.2514 21.1038 35.4381 21.3905 35.5714C21.6838 35.7047 22.0238 35.7714 22.4105 35.7714C22.8571 35.7714 23.2271 35.7247 23.5205 35.6314C23.8138 35.5381 24.0338 35.4547 24.1805 35.3814L24.4305 36.1814C24.3838 36.2147 24.3005 36.2581 24.1805 36.3114C24.0605 36.3581 23.9105 36.4047 23.7305 36.4514C23.5505 36.4981 23.3405 36.5381 23.1005 36.5714C22.8605 36.6047 22.6005 36.6214 22.3205 36.6214ZM27.4016 31.1614C27.4816 31.1614 27.5716 31.1681 27.6716 31.1814C27.7783 31.1881 27.8816 31.2014 27.9816 31.2214C28.0816 31.2347 28.1716 31.2514 28.2516 31.2714C28.3383 31.2847 28.4016 31.2981 28.4416 31.3114L28.2816 32.1214C28.2083 32.0947 28.085 32.0647 27.9116 32.0314C27.745 31.9914 27.5283 31.9714 27.2616 31.9714C27.0883 31.9714 26.915 31.9914 26.7416 32.0314C26.575 32.0647 26.465 32.0881 26.4116 32.1014V36.4714H25.4816V31.4914C25.7016 31.4114 25.975 31.3381 26.3016 31.2714C26.6283 31.1981 26.995 31.1614 27.4016 31.1614ZM29.0491 33.8814C29.0491 33.4214 29.1157 33.0214 29.2491 32.6814C29.3824 32.3347 29.5591 32.0481 29.7791 31.8214C29.9991 31.5947 30.2524 31.4247 30.5391 31.3114C30.8257 31.1981 31.1191 31.1414 31.4191 31.1414C32.1191 31.1414 32.6557 31.3614 33.0291 31.8014C33.4024 32.2347 33.5891 32.8981 33.5891 33.7914C33.5891 33.8314 33.5891 33.8847 33.5891 33.9514C33.5891 34.0114 33.5857 34.0681 33.5791 34.1214H30.0191C30.0591 34.6614 30.2157 35.0714 30.4891 35.3514C30.7624 35.6314 31.1891 35.7714 31.7691 35.7714C32.0957 35.7714 32.3691 35.7447 32.5891 35.6914C32.8157 35.6314 32.9857 35.5747 33.0991 35.5214L33.2291 36.3014C33.1157 36.3614 32.9157 36.4247 32.6291 36.4914C32.3491 36.5581 32.0291 36.5914 31.6691 36.5914C31.2157 36.5914 30.8224 36.5247 30.4891 36.3914C30.1624 36.2514 29.8924 36.0614 29.6791 35.8214C29.4657 35.5814 29.3057 35.2981 29.1991 34.9714C29.0991 34.6381 29.0491 34.2747 29.0491 33.8814ZM32.6191 33.3714C32.6257 32.9514 32.5191 32.6081 32.2991 32.3414C32.0857 32.0681 31.7891 31.9314 31.4091 31.9314C31.1957 31.9314 31.0057 31.9747 30.8391 32.0614C30.6791 32.1414 30.5424 32.2481 30.4291 32.3814C30.3157 32.5147 30.2257 32.6681 30.1591 32.8414C30.0991 33.0147 30.0591 33.1914 30.0391 33.3714H32.6191ZM38.285 32.3714C38.1717 32.2781 38.0083 32.1881 37.795 32.1014C37.5817 32.0147 37.3483 31.9714 37.095 31.9714C36.8283 31.9714 36.5983 32.0214 36.405 32.1214C36.2183 32.2147 36.065 32.3481 35.945 32.5214C35.825 32.6881 35.7383 32.8881 35.685 33.1214C35.6317 33.3547 35.605 33.6047 35.605 33.8714C35.605 34.4781 35.755 34.9481 36.055 35.2814C36.355 35.6081 36.755 35.7714 37.255 35.7714C37.5083 35.7714 37.7183 35.7614 37.885 35.7414C38.0583 35.7147 38.1917 35.6881 38.285 35.6614V32.3714ZM38.285 28.8714L39.215 28.7114V36.3214C39.0017 36.3814 38.7283 36.4414 38.395 36.5014C38.0617 36.5614 37.6783 36.5914 37.245 36.5914C36.845 36.5914 36.485 36.5281 36.165 36.4014C35.845 36.2747 35.5717 36.0947 35.345 35.8614C35.1183 35.6281 34.9417 35.3447 34.815 35.0114C34.695 34.6714 34.635 34.2914 34.635 33.8714C34.635 33.4714 34.685 33.1047 34.785 32.7714C34.8917 32.4381 35.045 32.1514 35.245 31.9114C35.445 31.6714 35.6883 31.4847 35.975 31.3514C36.2683 31.2181 36.6017 31.1514 36.975 31.1514C37.275 31.1514 37.5383 31.1914 37.765 31.2714C37.9983 31.3514 38.1717 31.4281 38.285 31.5014V28.8714ZM41.7437 36.4714H40.8137V31.2714H41.7437V36.4714ZM41.2737 30.3314C41.107 30.3314 40.9637 30.2781 40.8437 30.1714C40.7303 30.0581 40.6737 29.9081 40.6737 29.7214C40.6737 29.5347 40.7303 29.3881 40.8437 29.2814C40.9637 29.1681 41.107 29.1114 41.2737 29.1114C41.4403 29.1114 41.5803 29.1681 41.6937 29.2814C41.8137 29.3881 41.8737 29.5347 41.8737 29.7214C41.8737 29.9081 41.8137 30.0581 41.6937 30.1714C41.5803 30.2781 41.4403 30.3314 41.2737 30.3314ZM44.213 31.2714H46.183V32.0514H44.213V34.4514C44.213 34.7114 44.233 34.9281 44.273 35.1014C44.313 35.2681 44.373 35.4014 44.453 35.5014C44.533 35.5947 44.633 35.6614 44.753 35.7014C44.873 35.7414 45.013 35.7614 45.173 35.7614C45.453 35.7614 45.6763 35.7314 45.843 35.6714C46.0163 35.6047 46.1363 35.5581 46.203 35.5314L46.383 36.3014C46.2896 36.3481 46.1263 36.4047 45.893 36.4714C45.6596 36.5447 45.393 36.5814 45.093 36.5814C44.7396 36.5814 44.4463 36.5381 44.213 36.4514C43.9863 36.3581 43.803 36.2214 43.663 36.0414C43.523 35.8614 43.423 35.6414 43.363 35.3814C43.3096 35.1147 43.283 34.8081 43.283 34.4614V29.8214L44.213 29.6614V31.2714Z" fill="white"/>
<circle cx="207.203" cy="35.1626" r="11.3008" fill="#EB001B"/>
<ellipse cx="221.33" cy="35.1626" rx="10.7358" ry="11.3008" fill="#F79E1B"/>
<path fill-rule="evenodd" clip-rule="evenodd" d="M210.216 40.7018C211.892 43.8636 216.465 43.8636 218.142 40.7018C218.906 39.2614 219.338 37.6185 219.338 35.8746C219.338 34.1307 218.906 32.4878 218.142 31.0475C216.465 27.8857 211.892 27.8857 210.216 31.0475C209.452 32.4878 209.02 34.1307 209.02 35.8746C209.02 37.6185 209.452 39.2614 210.216 40.7018Z" fill="#FF5F00"/>
</g>
<defs>
<filter id="filter0_b_3938_26410" x="-79.6016" y="-79.8699" width="409.748" height="297.87" filterUnits="userSpaceOnUse" color-interpolation-filters="sRGB">
<feFlood flood-opacity="0" result="BackgroundImageFix"/>
<feGaussianBlur in="BackgroundImageFix" stdDeviation="40"/>
<feComposite in2="SourceAlpha" operator="in" result="effect1_backgroundBlur_3938_26410"/>
<feBlend mode="normal" in="SourceGraphic" in2="effect1_backgroundBlur_3938_26410" result="shape"/>
</filter>
<linearGradient id="paint0_linear_3938_26410" x1="-62.9704" y1="-28.5618" x2="285.131" y2="153.382" gradientUnits="userSpaceOnUse">
<stop offset="0.0364583"/>
<stop offset="0.878935" stop-color="#0FB8B8"/>
</linearGradient>
</defs>
</svg>
