<svg width="271" height="163" viewBox="0 0 271 163" fill="none" xmlns="http://www.w3.org/2000/svg">
<rect x="8.69922" y="12" width="249.748" height="139" rx="10" fill="url(#paint0_linear_3938_26443)"/>
<g filter="url(#filter0_bd_3938_26443)">
<rect x="8.69922" y="12" width="249.748" height="139" rx="10" fill="white" fill-opacity="0.03" shape-rendering="crispEdges"/>
</g>
<path fill-rule="evenodd" clip-rule="evenodd" d="M108.495 55.6632C118.868 79.8536 128.835 103.095 174.62 101.846C211.735 100.834 236.858 104.022 252.669 109.827C256.272 111.15 258.447 114.697 258.447 118.535V130.46C258.447 141.506 249.493 150.46 238.447 150.46H28.6992C17.6535 150.46 8.69922 141.506 8.69922 130.46V32.5397C8.69922 21.494 17.6535 12.5397 28.6992 12.5397H73.1395C74.7823 12.5397 76.4118 12.9312 77.8259 13.7673C94.8444 23.8288 101.756 39.9463 108.495 55.6632Z" fill="white" fill-opacity="0.08"/>
<path fill-rule="evenodd" clip-rule="evenodd" d="M26.671 12.6415C16.5779 13.658 8.69922 22.1789 8.69922 32.54V130.46C8.69922 141.506 17.6535 150.46 28.6992 150.46H238.447C246.954 150.46 254.22 145.149 257.111 137.662C257.477 136.716 257.622 135.696 257.525 134.687C255.898 117.605 230.102 104.615 161.902 106.475C118.182 107.667 108.666 85.4745 98.7609 62.3755C88.3904 38.1911 77.594 13.0134 26.671 12.6415Z" fill="white" fill-opacity="0.08"/>
<path d="M30.5613 130.837V129.467H27.1213V128.727L30.1413 123.857H31.3613V128.777H32.4013V129.467H31.3613V130.837H30.5613ZM27.8713 128.777H30.5613V124.507H30.5213L27.8713 128.777ZM33.6273 130.837V130.107H35.6273V124.477H35.5573L33.7973 126.117L33.3073 125.587L35.1573 123.857H36.4673V130.107H38.3073V130.837H33.6273ZM39.6234 130.837V130.107H41.6234V124.477H41.5534L39.7934 126.117L39.3034 125.587L41.1534 123.857H42.4634V130.107H44.3034V130.837H39.6234ZM45.6195 130.837V130.107H47.6195V124.477H47.5495L45.7895 126.117L45.2995 125.587L47.1495 123.857H48.4595V130.107H50.2995V130.837H45.6195ZM58.3117 128.217V127.377H61.2117V128.217H58.3117ZM69.6039 130.837V130.107H71.6039V124.477H71.5339L69.7739 126.117L69.2839 125.587L71.1339 123.857H72.4439V130.107H74.2839V130.837H69.6039ZM75.6 130.837V130.107H77.6V124.477H77.53L75.77 126.117L75.28 125.587L77.13 123.857H78.44V130.107H80.28V130.837H75.6ZM81.5961 130.837V130.107H83.5961V124.477H83.5261L81.7661 126.117L81.2761 125.587L83.1261 123.857H84.4361V130.107H86.2761V130.837H81.5961ZM87.5922 130.837V130.107H89.5922V124.477H89.5222L87.7622 126.117L87.2722 125.587L89.1222 123.857H90.4322V130.107H92.2722V130.837H87.5922ZM100.284 128.217V127.377H103.184V128.217H100.284ZM111.577 130.837V130.107H113.577V124.477H113.507L111.747 126.117L111.257 125.587L113.107 123.857H114.417V130.107H116.257V130.837H111.577ZM117.573 130.837V130.107H119.573V124.477H119.503L117.743 126.117L117.253 125.587L119.103 123.857H120.413V130.107H122.253V130.837H117.573ZM123.569 130.837V130.107H125.569V124.477H125.499L123.739 126.117L123.249 125.587L125.099 123.857H126.409V130.107H128.249V130.837H123.569ZM129.565 130.837V130.107H131.565V124.477H131.495L129.735 126.117L129.245 125.587L131.095 123.857H132.405V130.107H134.245V130.837H129.565ZM142.257 128.217V127.377H145.157V128.217H142.257ZM153.549 130.837V130.107H155.549V124.477H155.479L153.719 126.117L153.229 125.587L155.079 123.857H156.389V130.107H158.229V130.837H153.549ZM159.545 130.837V130.107H161.545V124.477H161.475L159.715 126.117L159.225 125.587L161.075 123.857H162.385V130.107H164.225V130.837H159.545ZM165.541 130.837V130.107H167.541V124.477H167.471L165.711 126.117L165.221 125.587L167.071 123.857H168.381V130.107H170.221V130.837H165.541ZM171.538 130.837V130.107H173.538V124.477H173.468L171.708 126.117L171.218 125.587L173.068 123.857H174.378V130.107H176.218V130.837H171.538Z" fill="white"/>
<path d="M27.6813 112.756V105.776H31.9813V106.506H28.5213V108.856H31.8613V109.586H28.5213V112.026H31.9813V112.756H27.6813ZM37.0273 111.916H36.9873C36.654 112.556 36.124 112.876 35.3973 112.876C34.764 112.876 34.2673 112.639 33.9073 112.166C33.554 111.693 33.3773 111.029 33.3773 110.176C33.3773 109.323 33.554 108.659 33.9073 108.186C34.2673 107.713 34.764 107.476 35.3973 107.476C36.124 107.476 36.654 107.796 36.9873 108.436H37.0273V105.356H37.8273V112.756H37.0273V111.916ZM35.7073 112.166C35.8873 112.166 36.0573 112.143 36.2173 112.096C36.3773 112.049 36.5173 111.983 36.6373 111.896C36.7573 111.803 36.8507 111.693 36.9173 111.566C36.9907 111.433 37.0273 111.279 37.0273 111.106V109.246C37.0273 109.073 36.9907 108.923 36.9173 108.796C36.8507 108.663 36.7573 108.553 36.6373 108.466C36.5173 108.373 36.3773 108.303 36.2173 108.256C36.0573 108.209 35.8873 108.186 35.7073 108.186C35.2407 108.186 34.8773 108.329 34.6173 108.616C34.364 108.896 34.2373 109.269 34.2373 109.736V110.616C34.2373 111.083 34.364 111.459 34.6173 111.746C34.8773 112.026 35.2407 112.166 35.7073 112.166ZM47.7495 112.876C47.1229 112.876 46.6095 112.763 46.2095 112.536C45.8095 112.303 45.4795 112.006 45.2195 111.646L45.8295 111.146C46.1029 111.486 46.3895 111.739 46.6895 111.906C46.9962 112.073 47.3595 112.156 47.7795 112.156C48.2862 112.156 48.6729 112.039 48.9395 111.806C49.2062 111.573 49.3395 111.246 49.3395 110.826C49.3395 110.486 49.2429 110.223 49.0495 110.036C48.8562 109.843 48.5195 109.706 48.0395 109.626L47.2595 109.496C46.9195 109.436 46.6329 109.346 46.3995 109.226C46.1729 109.106 45.9895 108.963 45.8495 108.796C45.7095 108.623 45.6095 108.436 45.5495 108.236C45.4895 108.029 45.4595 107.816 45.4595 107.596C45.4595 106.956 45.6695 106.473 46.0895 106.146C46.5095 105.819 47.0762 105.656 47.7895 105.656C48.3495 105.656 48.8195 105.749 49.1995 105.936C49.5862 106.123 49.8962 106.386 50.1295 106.726L49.5395 107.236C49.3462 106.983 49.1129 106.776 48.8395 106.616C48.5662 106.456 48.2129 106.376 47.7795 106.376C47.3062 106.376 46.9429 106.476 46.6895 106.676C46.4362 106.876 46.3095 107.176 46.3095 107.576C46.3095 107.889 46.4029 108.146 46.5895 108.346C46.7829 108.539 47.1262 108.679 47.6195 108.766L48.3695 108.896C48.7095 108.956 48.9962 109.046 49.2295 109.166C49.4629 109.286 49.6495 109.429 49.7895 109.596C49.9362 109.763 50.0395 109.949 50.0995 110.156C50.1595 110.363 50.1895 110.579 50.1895 110.806C50.1895 111.453 49.9762 111.959 49.5495 112.326C49.1295 112.693 48.5295 112.876 47.7495 112.876ZM51.7456 105.356H52.5456V108.436H52.5856C52.639 108.309 52.7056 108.189 52.7856 108.076C52.8656 107.956 52.9623 107.853 53.0756 107.766C53.1956 107.679 53.3356 107.609 53.4956 107.556C53.6556 107.503 53.8423 107.476 54.0556 107.476C54.5956 107.476 55.029 107.649 55.3556 107.996C55.6823 108.336 55.8456 108.819 55.8456 109.446V112.756H55.0456V109.586C55.0456 109.113 54.9423 108.763 54.7356 108.536C54.529 108.303 54.2256 108.186 53.8256 108.186C53.6656 108.186 53.509 108.206 53.3556 108.246C53.2023 108.286 53.0656 108.346 52.9456 108.426C52.8256 108.506 52.729 108.609 52.6556 108.736C52.5823 108.863 52.5456 109.009 52.5456 109.176V112.756H51.7456V105.356ZM59.8517 112.876C59.4784 112.876 59.1417 112.813 58.8417 112.686C58.5484 112.559 58.2951 112.379 58.0817 112.146C57.8751 111.906 57.7151 111.623 57.6017 111.296C57.4884 110.963 57.4317 110.593 57.4317 110.186C57.4317 109.773 57.4884 109.399 57.6017 109.066C57.7217 108.733 57.8851 108.449 58.0917 108.216C58.2984 107.976 58.5451 107.793 58.8317 107.666C59.1251 107.539 59.4484 107.476 59.8017 107.476C60.1484 107.476 60.4617 107.539 60.7417 107.666C61.0284 107.793 61.2717 107.969 61.4717 108.196C61.6717 108.416 61.8251 108.679 61.9317 108.986C62.0384 109.293 62.0917 109.629 62.0917 109.996V110.376H58.2717V110.616C58.2717 110.843 58.3084 111.053 58.3817 111.246C58.4551 111.439 58.5584 111.606 58.6917 111.746C58.8317 111.886 58.9984 111.996 59.1917 112.076C59.3917 112.149 59.6117 112.186 59.8517 112.186C60.1984 112.186 60.4984 112.106 60.7517 111.946C61.0051 111.786 61.1984 111.566 61.3317 111.286L61.9217 111.686C61.7684 112.033 61.5117 112.319 61.1517 112.546C60.7984 112.766 60.3651 112.876 59.8517 112.876ZM59.8017 108.136C59.5817 108.136 59.3784 108.176 59.1917 108.256C59.0051 108.336 58.8417 108.446 58.7017 108.586C58.5684 108.726 58.4617 108.893 58.3817 109.086C58.3084 109.273 58.2717 109.479 58.2717 109.706V109.776H61.2317V109.666C61.2317 109.439 61.1951 109.233 61.1217 109.046C61.0551 108.859 60.9584 108.699 60.8317 108.566C60.7117 108.426 60.5617 108.319 60.3817 108.246C60.2084 108.173 60.0151 108.136 59.8017 108.136ZM65.8478 112.876C65.4745 112.876 65.1378 112.813 64.8378 112.686C64.5445 112.559 64.2911 112.379 64.0778 112.146C63.8711 111.906 63.7111 111.623 63.5978 111.296C63.4845 110.963 63.4278 110.593 63.4278 110.186C63.4278 109.773 63.4845 109.399 63.5978 109.066C63.7178 108.733 63.8811 108.449 64.0878 108.216C64.2945 107.976 64.5411 107.793 64.8278 107.666C65.1211 107.539 65.4445 107.476 65.7978 107.476C66.1445 107.476 66.4578 107.539 66.7378 107.666C67.0245 107.793 67.2678 107.969 67.4678 108.196C67.6678 108.416 67.8211 108.679 67.9278 108.986C68.0345 109.293 68.0878 109.629 68.0878 109.996V110.376H64.2678V110.616C64.2678 110.843 64.3045 111.053 64.3778 111.246C64.4511 111.439 64.5545 111.606 64.6878 111.746C64.8278 111.886 64.9945 111.996 65.1878 112.076C65.3878 112.149 65.6078 112.186 65.8478 112.186C66.1945 112.186 66.4945 112.106 66.7478 111.946C67.0011 111.786 67.1945 111.566 67.3278 111.286L67.9178 111.686C67.7645 112.033 67.5078 112.319 67.1478 112.546C66.7945 112.766 66.3611 112.876 65.8478 112.876ZM65.7978 108.136C65.5778 108.136 65.3745 108.176 65.1878 108.256C65.0011 108.336 64.8378 108.446 64.6978 108.586C64.5645 108.726 64.4578 108.893 64.3778 109.086C64.3045 109.273 64.2678 109.479 64.2678 109.706V109.776H67.2278V109.666C67.2278 109.439 67.1911 109.233 67.1178 109.046C67.0511 108.859 66.9545 108.699 66.8278 108.566C66.7078 108.426 66.5578 108.319 66.3778 108.246C66.2045 108.173 66.0111 108.136 65.7978 108.136ZM69.5239 112.076H71.0339V108.276H69.5239V107.596H71.8339V108.896H71.8839C71.9906 108.489 72.1906 108.173 72.4839 107.946C72.7839 107.713 73.1639 107.596 73.6239 107.596H74.3439V108.396H73.3739C72.9139 108.396 72.5406 108.529 72.2539 108.796C71.9739 109.063 71.8339 109.413 71.8339 109.846V112.076H73.8339V112.756H69.5239V112.076ZM79.7 112.756C79.3867 112.756 79.1633 112.676 79.03 112.516C78.8967 112.356 78.8133 112.156 78.78 111.916H78.73C78.6167 112.216 78.4333 112.453 78.18 112.626C77.9333 112.793 77.6 112.876 77.18 112.876C76.64 112.876 76.21 112.736 75.89 112.456C75.57 112.176 75.41 111.793 75.41 111.306C75.41 110.826 75.5833 110.456 75.93 110.196C76.2833 109.936 76.85 109.806 77.63 109.806H78.73V109.296C78.73 108.916 78.6233 108.633 78.41 108.446C78.1967 108.253 77.8933 108.156 77.5 108.156C77.1533 108.156 76.87 108.226 76.65 108.366C76.43 108.499 76.2533 108.683 76.12 108.916L75.58 108.516C75.6467 108.383 75.7367 108.253 75.85 108.126C75.9633 107.999 76.1033 107.889 76.27 107.796C76.4367 107.696 76.6267 107.619 76.84 107.566C77.0533 107.506 77.29 107.476 77.55 107.476C78.1567 107.476 78.6367 107.629 78.99 107.936C79.35 108.243 79.53 108.669 79.53 109.216V112.056H80.25V112.756H79.7ZM77.32 112.206C77.5267 112.206 77.7133 112.183 77.88 112.136C78.0533 112.083 78.2033 112.016 78.33 111.936C78.4567 111.849 78.5533 111.749 78.62 111.636C78.6933 111.516 78.73 111.389 78.73 111.256V110.406H77.63C77.15 110.406 76.8 110.473 76.58 110.606C76.36 110.739 76.25 110.933 76.25 111.186V111.396C76.25 111.663 76.3433 111.866 76.53 112.006C76.7233 112.139 76.9867 112.206 77.32 112.206ZM81.7261 112.756V107.596H82.5261V108.436H82.5661C82.6194 108.309 82.6861 108.189 82.7661 108.076C82.8461 107.956 82.9428 107.853 83.0561 107.766C83.1761 107.679 83.3161 107.609 83.4761 107.556C83.6361 107.503 83.8228 107.476 84.0361 107.476C84.5761 107.476 85.0094 107.649 85.3361 107.996C85.6628 108.336 85.8261 108.819 85.8261 109.446V112.756H85.0261V109.586C85.0261 109.113 84.9228 108.763 84.7161 108.536C84.5094 108.303 84.2061 108.186 83.8061 108.186C83.6461 108.186 83.4894 108.206 83.3361 108.246C83.1828 108.286 83.0461 108.346 82.9261 108.426C82.8061 108.506 82.7094 108.609 82.6361 108.736C82.5628 108.863 82.5261 109.009 82.5261 109.176V112.756H81.7261Z" fill="white"/>
<path opacity="0.9" d="M30.6213 49.6214C30.1346 49.6214 29.6913 49.5414 29.2913 49.3814C28.8913 49.2214 28.5479 48.9881 28.2613 48.6814C27.9746 48.3748 27.7513 47.9981 27.5913 47.5514C27.4379 47.0981 27.3613 46.5814 27.3613 46.0014C27.3613 45.4214 27.4479 44.9081 27.6213 44.4614C27.8013 44.0081 28.0413 43.6281 28.3413 43.3214C28.6413 43.0148 28.9913 42.7814 29.3913 42.6214C29.7913 42.4614 30.2179 42.3814 30.6713 42.3814C30.9579 42.3814 31.2146 42.4014 31.4413 42.4414C31.6746 42.4814 31.8746 42.5281 32.0413 42.5814C32.2146 42.6348 32.3546 42.6881 32.4613 42.7414C32.5679 42.7948 32.6413 42.8348 32.6813 42.8614L32.4013 43.6614C32.3413 43.6214 32.2546 43.5781 32.1413 43.5314C32.0279 43.4848 31.8979 43.4381 31.7513 43.3914C31.6113 43.3448 31.4546 43.3081 31.2813 43.2814C31.1146 43.2481 30.9446 43.2314 30.7713 43.2314C30.4046 43.2314 30.0746 43.2948 29.7813 43.4214C29.4879 43.5481 29.2379 43.7314 29.0313 43.9714C28.8246 44.2114 28.6646 44.5048 28.5513 44.8514C28.4446 45.1914 28.3913 45.5748 28.3913 46.0014C28.3913 46.4148 28.4379 46.7914 28.5313 47.1314C28.6313 47.4714 28.7779 47.7648 28.9713 48.0114C29.1646 48.2514 29.4046 48.4381 29.6913 48.5714C29.9846 48.7048 30.3246 48.7714 30.7113 48.7714C31.1579 48.7714 31.5279 48.7248 31.8213 48.6314C32.1146 48.5381 32.3346 48.4548 32.4813 48.3814L32.7313 49.1814C32.6846 49.2148 32.6013 49.2581 32.4813 49.3114C32.3613 49.3581 32.2113 49.4048 32.0313 49.4514C31.8513 49.4981 31.6413 49.5381 31.4013 49.5714C31.1613 49.6048 30.9013 49.6214 30.6213 49.6214ZM35.7024 44.1614C35.7824 44.1614 35.8724 44.1681 35.9724 44.1814C36.0791 44.1881 36.1824 44.2014 36.2824 44.2214C36.3824 44.2348 36.4724 44.2514 36.5524 44.2714C36.6391 44.2848 36.7024 44.2981 36.7424 44.3114L36.5824 45.1214C36.5091 45.0948 36.3858 45.0648 36.2124 45.0314C36.0458 44.9914 35.8291 44.9714 35.5624 44.9714C35.3891 44.9714 35.2158 44.9914 35.0424 45.0314C34.8758 45.0648 34.7658 45.0881 34.7124 45.1014V49.4714H33.7824V44.4914C34.0024 44.4114 34.2758 44.3381 34.6024 44.2714C34.9291 44.1981 35.2958 44.1614 35.7024 44.1614ZM37.3498 46.8814C37.3498 46.4214 37.4165 46.0214 37.5498 45.6814C37.6832 45.3348 37.8598 45.0481 38.0798 44.8214C38.2998 44.5948 38.5532 44.4248 38.8398 44.3114C39.1265 44.1981 39.4198 44.1414 39.7198 44.1414C40.4198 44.1414 40.9565 44.3614 41.3298 44.8014C41.7032 45.2348 41.8898 45.8981 41.8898 46.7914C41.8898 46.8314 41.8898 46.8848 41.8898 46.9514C41.8898 47.0114 41.8865 47.0681 41.8798 47.1214H38.3198C38.3598 47.6614 38.5165 48.0714 38.7898 48.3514C39.0632 48.6314 39.4898 48.7714 40.0698 48.7714C40.3965 48.7714 40.6698 48.7448 40.8898 48.6914C41.1165 48.6314 41.2865 48.5748 41.3998 48.5214L41.5298 49.3014C41.4165 49.3614 41.2165 49.4248 40.9298 49.4914C40.6498 49.5581 40.3298 49.5914 39.9698 49.5914C39.5165 49.5914 39.1232 49.5248 38.7898 49.3914C38.4632 49.2514 38.1932 49.0614 37.9798 48.8214C37.7665 48.5814 37.6065 48.2981 37.4998 47.9714C37.3998 47.6381 37.3498 47.2748 37.3498 46.8814ZM40.9198 46.3714C40.9265 45.9514 40.8198 45.6081 40.5998 45.3414C40.3865 45.0681 40.0898 44.9314 39.7098 44.9314C39.4965 44.9314 39.3065 44.9748 39.1398 45.0614C38.9798 45.1414 38.8432 45.2481 38.7298 45.3814C38.6165 45.5148 38.5265 45.6681 38.4598 45.8414C38.3998 46.0148 38.3598 46.1914 38.3398 46.3714H40.9198ZM46.5858 45.3714C46.4724 45.2781 46.3091 45.1881 46.0958 45.1014C45.8824 45.0148 45.6491 44.9714 45.3958 44.9714C45.1291 44.9714 44.8991 45.0214 44.7058 45.1214C44.5191 45.2148 44.3658 45.3481 44.2458 45.5214C44.1258 45.6881 44.0391 45.8881 43.9858 46.1214C43.9324 46.3548 43.9058 46.6048 43.9058 46.8714C43.9058 47.4781 44.0558 47.9481 44.3558 48.2814C44.6558 48.6081 45.0558 48.7714 45.5558 48.7714C45.8091 48.7714 46.0191 48.7614 46.1858 48.7414C46.3591 48.7148 46.4924 48.6881 46.5858 48.6614V45.3714ZM46.5858 41.8714L47.5158 41.7114V49.3214C47.3024 49.3814 47.0291 49.4414 46.6958 49.5014C46.3624 49.5614 45.9791 49.5914 45.5458 49.5914C45.1458 49.5914 44.7858 49.5281 44.4658 49.4014C44.1458 49.2748 43.8724 49.0948 43.6458 48.8614C43.4191 48.6281 43.2424 48.3448 43.1158 48.0114C42.9958 47.6714 42.9358 47.2914 42.9358 46.8714C42.9358 46.4714 42.9858 46.1048 43.0858 45.7714C43.1924 45.4381 43.3458 45.1514 43.5458 44.9114C43.7458 44.6714 43.9891 44.4848 44.2758 44.3514C44.5691 44.2181 44.9024 44.1514 45.2758 44.1514C45.5758 44.1514 45.8391 44.1914 46.0658 44.2714C46.2991 44.3514 46.4724 44.4281 46.5858 44.5014V41.8714ZM50.0445 49.4714H49.1145V44.2714H50.0445V49.4714ZM49.5745 43.3314C49.4078 43.3314 49.2645 43.2781 49.1445 43.1714C49.0311 43.0581 48.9745 42.9081 48.9745 42.7214C48.9745 42.5348 49.0311 42.3881 49.1445 42.2814C49.2645 42.1681 49.4078 42.1114 49.5745 42.1114C49.7411 42.1114 49.8811 42.1681 49.9945 42.2814C50.1145 42.3881 50.1745 42.5348 50.1745 42.7214C50.1745 42.9081 50.1145 43.0581 49.9945 43.1714C49.8811 43.2781 49.7411 43.3314 49.5745 43.3314ZM52.5138 44.2714H54.4838V45.0514H52.5138V47.4514C52.5138 47.7114 52.5338 47.9281 52.5738 48.1014C52.6138 48.2681 52.6738 48.4014 52.7538 48.5014C52.8338 48.5948 52.9338 48.6614 53.0538 48.7014C53.1738 48.7414 53.3138 48.7614 53.4738 48.7614C53.7538 48.7614 53.9771 48.7314 54.1438 48.6714C54.3171 48.6048 54.4371 48.5581 54.5038 48.5314L54.6838 49.3014C54.5904 49.3481 54.4271 49.4048 54.1938 49.4714C53.9604 49.5448 53.6938 49.5814 53.3938 49.5814C53.0404 49.5814 52.7471 49.5381 52.5138 49.4514C52.2871 49.3581 52.1038 49.2214 51.9638 49.0414C51.8238 48.8614 51.7238 48.6414 51.6638 48.3814C51.6104 48.1148 51.5838 47.8081 51.5838 47.4614V42.8214L52.5138 42.6614V44.2714Z" fill="white"/>
<path d="M216.585 33.6726C217.558 33.6726 218.217 34.6639 217.84 35.5612L214.581 43.3269C214.257 44.0992 213.501 44.6017 212.664 44.6017C211.716 44.6017 210.888 43.9607 210.651 43.0431L208.797 35.8786C208.66 35.342 208.542 35.1452 208.124 34.9192C207.484 34.5718 206.45 34.2451 205.506 34.028C205.41 34.0059 205.349 33.9111 205.369 33.8147C205.387 33.7319 205.46 33.6726 205.544 33.6726H210.216C210.531 33.6723 210.835 33.7844 211.075 33.9887C211.314 34.1929 211.472 34.4759 211.521 34.7865C211.867 36.6209 214.396 36.8628 215.083 35.1272L215.319 34.5329C215.524 34.0137 216.026 33.6726 216.585 33.6726ZM230.358 41.034C230.37 38.1486 226.365 37.9897 226.392 36.7009C226.401 36.3087 226.775 35.8917 227.592 35.7853C228.08 35.739 228.569 35.7601 229.047 35.8463C229.755 35.974 230.529 35.601 230.68 34.8973C230.795 34.3569 230.499 33.8041 229.962 33.6766C229.396 33.5426 228.816 33.4735 228.233 33.4714C225.435 33.4714 223.466 34.9586 223.448 37.0858C223.431 38.6589 224.854 39.5352 225.927 40.0601C227.03 40.5951 227.401 40.9392 227.395 41.4174C227.388 42.1523 226.516 42.4745 225.702 42.4876C225.101 42.4968 224.607 42.43 224.187 42.3266C223.445 42.1438 222.642 42.5101 222.482 43.2578C222.365 43.8037 222.645 44.359 223.187 44.494C223.825 44.6531 224.618 44.7648 225.429 44.7722C228.402 44.7722 230.348 43.3055 230.358 41.034ZM237.576 43.7852C237.675 44.2608 238.094 44.6017 238.58 44.6017H238.788C239.601 44.6017 240.208 43.8541 240.042 43.0582L238.575 36.0387C238.287 34.6602 237.071 33.6726 235.663 33.6726C235.405 33.6702 235.152 33.7454 234.937 33.8884C234.722 34.0314 234.555 34.2356 234.457 34.4745L230.995 42.7328C230.622 43.6209 231.274 44.6017 232.237 44.6017H232.315C232.836 44.6017 233.301 44.2752 233.478 43.7852C233.656 43.2952 234.121 42.9687 234.642 42.9687H236.572C237.058 42.9687 237.477 43.3096 237.576 43.7852ZM235.849 40.7293C235.236 40.7293 234.809 40.1207 235.018 39.5447C235.322 38.7086 236.531 38.7945 236.713 39.6652C236.828 40.2139 236.409 40.7293 235.849 40.7293ZM220.967 33.6726C221.847 33.6726 222.504 34.4844 222.319 35.3455L220.572 43.5072C220.435 44.1455 219.871 44.6017 219.218 44.6017C218.337 44.6017 217.68 43.789 217.865 42.9272L219.614 34.7659C219.751 34.1282 220.315 33.6726 220.967 33.6726Z" fill="white"/>
<rect x="10.1992" y="13.5" width="246.748" height="136" rx="8.5" stroke="#4CAF50" stroke-width="3"/>
<g filter="url(#filter1_d_3938_26443)">
<circle cx="253" cy="15" r="13" fill="#4CAF50"/>
</g>
<path fill-rule="evenodd" clip-rule="evenodd" d="M242 15C242 21.0751 246.925 26 253 26C255.917 26 258.715 24.8411 260.778 22.7782C262.841 20.7153 264 17.9174 264 15C264 8.92487 259.075 4 253 4C246.925 4 242 8.92487 242 15ZM244 15C244 10.0294 248.029 6 253 6C257.971 6 262 10.0294 262 15C262 19.9706 257.971 24 253 24C248.029 24 244 19.9706 244 15Z" fill="#1E5B63" fill-opacity="0.3"/>
<path d="M251 20C250.734 20.0015 250.479 19.8972 250.29 19.71L247.29 16.71C246.898 16.3179 246.898 15.6821 247.29 15.29C247.682 14.8979 248.318 14.8979 248.71 15.29L251 17.59L256.79 11.79C257.182 11.3979 257.818 11.3979 258.21 11.79C258.602 12.1821 258.602 12.8179 258.21 13.21L251.71 19.71C251.521 19.8972 251.266 20.0015 251 20Z" fill="white"/>
<defs>
<filter id="filter0_bd_3938_26443" x="-71.3008" y="-68" width="409.748" height="299" filterUnits="userSpaceOnUse" color-interpolation-filters="sRGB">
<feFlood flood-opacity="0" result="BackgroundImageFix"/>
<feGaussianBlur in="BackgroundImageFix" stdDeviation="40"/>
<feComposite in2="SourceAlpha" operator="in" result="effect1_backgroundBlur_3938_26443"/>
<feColorMatrix in="SourceAlpha" type="matrix" values="0 0 0 0 0 0 0 0 0 0 0 0 0 0 0 0 0 0 127 0" result="hardAlpha"/>
<feOffset dx="2" dy="2"/>
<feGaussianBlur stdDeviation="5"/>
<feComposite in2="hardAlpha" operator="out"/>
<feColorMatrix type="matrix" values="0 0 0 0 0 0 0 0 0 0 0 0 0 0 0 0 0 0 0.25 0"/>
<feBlend mode="normal" in2="effect1_backgroundBlur_3938_26443" result="effect2_dropShadow_3938_26443"/>
<feBlend mode="normal" in="SourceGraphic" in2="effect2_dropShadow_3938_26443" result="shape"/>
</filter>
<filter id="filter1_d_3938_26443" x="236" y="0" width="34" height="34" filterUnits="userSpaceOnUse" color-interpolation-filters="sRGB">
<feFlood flood-opacity="0" result="BackgroundImageFix"/>
<feColorMatrix in="SourceAlpha" type="matrix" values="0 0 0 0 0 0 0 0 0 0 0 0 0 0 0 0 0 0 127 0" result="hardAlpha"/>
<feOffset dy="2"/>
<feGaussianBlur stdDeviation="2"/>
<feComposite in2="hardAlpha" operator="out"/>
<feColorMatrix type="matrix" values="0 0 0 0 0 0 0 0 0 0 0 0 0 0 0 0 0 0 0.25 0"/>
<feBlend mode="normal" in2="BackgroundImageFix" result="effect1_dropShadow_3938_26443"/>
<feBlend mode="normal" in="SourceGraphic" in2="effect1_dropShadow_3938_26443" result="shape"/>
</filter>
<linearGradient id="paint0_linear_3938_26443" x1="-27.0856" y1="-3.02703" x2="294.56" y2="164.34" gradientUnits="userSpaceOnUse">
<stop offset="0.122247" stop-color="#52B6FE"/>
<stop offset="0.878935" stop-color="#6154FE"/>
</linearGradient>
</defs>
</svg>
